<svg xmlns="http://www.w3.org/2000/svg" viewBox="0 0 750.48 299.68"><defs><style>.cls-1,.cls-2{opacity:0.05;}.cls-3{fill:none;}</style></defs><title>Recurso 4backg</title><g id="Capa_2" data-name="Capa 2"><g id="Objects"><path class="cls-1" d="M750.24,299.68V8.55a12.68,12.68,0,0,0-2,.18,22.43,22.43,0,0,1-2.78.56,12.64,12.64,0,0,1-3.55-.51,58.84,58.84,0,0,0-9.37-1.07,27,27,0,0,0-4.92,0c-2.1.27-4.23,1-6.28.51-1-.27-2-.85-3-1.1-3.44-.8-9.84,3.17-11.32-2a3.49,3.49,0,0,0-.26-.79c-.65-1.07-2.34-.16-3,.92s-1.41,2.53-2.65,2.32c-.77-.13-1.26-.87-1.62-1.55A31.76,31.76,0,0,1,697,0a22.85,22.85,0,0,1-5.24,4.92c-2.23,1.33-4.42.61-6.6,1.51-1.5.61-1.91,2.72-2.54,4.07s-1.33,2.45-1.81,3.72a6.21,6.21,0,0,1-.93,2,1.42,1.42,0,0,1-2,.28,2.35,2.35,0,0,1-.39-1.63c0-.57-.19-1.25-.74-1.42s-1.16.41-1.5.95A18.34,18.34,0,0,0,673.53,18a3.25,3.25,0,0,1-.51,1c-1.22,1.47-1.76-1.06-2.59-1.44-1.25-.58-4,.62-5.27.91a14.71,14.71,0,0,1-9.23-.87,20.22,20.22,0,0,0-4.2-1.76c-4.35-.86-8.2,3.23-9.63,7.41a5.74,5.74,0,0,1-1,2.15c-1.7,1.81-4.71.31-7.17.62-3.82.49-6.12,5.46-10,5.39-1.78,0-3.77-1.16-5.2-.08a4.15,4.15,0,0,0-1.09,1.57c-1.6,3.32-3.42,6.87-6.73,8.49-1.71.83-3.75,1.1-5.16,2.39-1.19,1.09-1.83,2.84-3.32,3.46-1.07.44-2.31.19-3.38.6-2.15.82-2.53,3.65-3.83,5.55-2.8,4.06-8.71,2.29-12.78,3a16.81,16.81,0,0,0-5.57,2.07c-1.29.76-2.71,1.73-4.15,1.34-.7-.2-1.28-.7-2-.95-2.58-1-4.93,1.79-6.34,4.16-1.09-2.1-4.19-1.76-6.41-.92s-5,1.78-6.72.17c-.69-.65-1.23-1.69-2.17-1.65a2.25,2.25,0,0,0-1.52,1.06l-5.18,6.49-2.9-3A19.8,19.8,0,0,0,534,71.9a11.73,11.73,0,0,0-12.42.53c-2,1.42-4.19,3.6-6.44,2.66a10.11,10.11,0,0,0-2-1c-1.36-.21-2.39,1.13-3.21,2.24-3.08,4.11-7.7,6.75-12.29,9.07A172.36,172.36,0,0,1,456.45,100a44.89,44.89,0,0,0-6.06,1.56c-1.53.56-3,1.31-4.48,2A109.21,109.21,0,0,1,433.65,108a43.61,43.61,0,0,1-8.9,2.16c-1.79.18-3.59.14-5.35.48a29.25,29.25,0,0,0-6.38,2.44,43,43,0,0,1-14.23,4.2c-4.89.41-9.87-.31-14.74-.71a86.3,86.3,0,0,0-12.34-.43c-5.32.32-10.75,1.61-15.9.23-3.27-.88-6.56-2.83-9.83-1.92-1,.28-1.9.81-2.89,1.08a11.1,11.1,0,0,1-2.94.24L313,115.64c-1.8,0-3.59,0-5.38-.19-3.22-.31-6.38-1.16-9.61-1.5-8.5-.91-17.43,1.68-25.49-1.18a13.72,13.72,0,0,0-3.23-.94,11.38,11.38,0,0,0-2.72.2c-5.72.77-11.51-.1-17.22-1l-14.18-2.16c-7.49-1.14-13.72-3-19.86-7.49-4.3-3.18-10.06-4.43-13.42-8.59a7.92,7.92,0,0,0-1.78-1.91c-1.29-.81-3-.53-4.34-1.29-1.63-.93-2.44-3.34-4.32-3.42-.75,0-1.47.35-2.22.36-2.68,0-3.21-4-5.48-5.46-1.6-1-3.9-.52-5.32-1.77a23.11,23.11,0,0,1-1.73-2.39c-2-2.22-6-1.46-7.91-3.72-1.15-1.36-1.27-3.57-2.83-4.43s-3.44.11-5-.46c-2.08-.74-2.69-3.56-4.64-4.59-2.19-1.17-5.24.39-7.24-1.09-1.05-.77-1.44-2.14-2.2-3.2-2.17-3-6.77-3-9.52-5.48a8.59,8.59,0,0,0-1.79-1.52c-1-.48-2.19-.27-3.3-.36-3.2-.27-4.73-3-5.88-5.61-.73-1.67-1.41-3.54-3-4.56-1.09-.69-2.44-.86-3.56-1.51-2.08-1.2-3-3.78-4.88-5.25-3.42-2.65-8.54-.81-12.6-2.33-2.44-.92-4.4-3-7-3.5-3.64-.65-7.47,2.19-10.9.82-2.08-.84-3.86-3.16-6-2.55-1.21.35-2,1.52-2.93,2.31-3.6,2.94-9.2.19-13.55,1.8-1.92.72-3.67,2.29-5.7,2-.87-.11-1.66-.55-2.52-.73-3.25-.7-6.32,2.31-9.63,2C42.38,34.93,40.89,34,39.26,34a10,10,0,0,0-4.46,1.48,37.78,37.78,0,0,1-17.26,3.84,5.4,5.4,0,0,0-3,.49c-1.28.82-1.69,2.74-3.13,3.25a7.14,7.14,0,0,1-2.17.1c-2.28.06-4.14,1.74-6,3.07A23.18,23.18,0,0,1,.24,48V299.68Z"/><path class="cls-1" d="M750.24,299.68V136.38q-2.38-1.66-4.84-3.14c-4.58-2.74-8.52-4.77-12.46-8.59-3.52-3.4-7-7.51-12.09-8.3-5.57-.86-11.89,2.58-16.56-.57-2.27-1.53-3.64-4.41-6.27-5.16-4.69-1.36-9.06,5-13.74,3.64-1.55-.46-2.74-1.71-4.24-2.32-3.8-1.53-8.06,1.48-12.12.83-1.73-.28-3.35-1.22-5.1-1.14-3.3.16-5.36,3.73-8.44,4.93-2,.8-4.33.47-6.52.35a33.51,33.51,0,0,0-22.66,7.3c-1.89,1.52-3.68,3.29-6,4.08-2.75,1-6,.38-8.46,1.87-3.78,2.24-5,8.6-9.41,8.62-2.16,0-4.31-1.72-6.29-.88s-2.27,3.59-3.93,4.93c-2.82,2.26-6.73-.8-10.31-1.29-4.37-.59-8.66,3.8-8,8.15-5.46-2.83-10.65,4.81-16.71,5.82-4.94.82-11.19-2.58-14.38,1.28-.81,1-1.22,2.3-2.25,3-2.38,1.71-5.43-.86-8.3-1.42-3.32-.65-6.45,1.51-9.67,2.52s-7.93-.24-7.86-3.62c-.92,2.4-4.38,2.46-6.7,1.38s-4.46-2.91-7-2.93a14.51,14.51,0,0,0-4.8,1.32c-9.6,3.42-16-1.54-22.94-7.32-4.63-3.86-11.15-5.84-17.07-6.58-2.13-.27-4.57-.51-5.84-2.25-.77-1.05-.95-2.49-1.9-3.4-2.46-2.35-7,1.13-9.81-.73-1.4-.91-1.86-2.83-3.25-3.76-2-1.34-4.68.05-7.1.16a14.14,14.14,0,0,1-4.11-.67,100.21,100.21,0,0,0-15.46-2.78c-2.78-.28-5.67-.43-8.26.59s-4.81,3.51-4.65,6.29a52.88,52.88,0,0,1-14.17,10c-7.82,3.77-16.62,5.63-23.69,10.67-3.71,2.64-7.5,6.31-12,5.7-1.46-.2-2.91-.86-4.35-.57-2.56.52-3.71,3.63-6,4.83a9.07,9.07,0,0,1-4.69.56L298.37,166c-6.28-.36-13.08-.93-17.79-5.11-1.86-1.65-3.91-4-6.29-3.28-1,.29-1.77,1.09-2.75,1.39-3.64,1.13-5.77-4.5-9.44-5.53-2.5-.71-5,.9-7.41,1.83s-6,.59-6.56-1.94c-6.84,4.2-15.45,8.48-22.43,4.53a15.71,15.71,0,0,0-3-1.62,12.92,12.92,0,0,0-4-.16,27.19,27.19,0,0,1-7.16-1,91.62,91.62,0,0,1-16.09-5.55c-5.07-2.3-10-2.85-15-4.52-4.92-1.62-8.57-5.68-14-6.36-1.25-.16-2.64-.23-3.55-1.11-1.25-1.2-1-3.41-2.31-4.59-2.53-2.33-7.14,1.94-9.83-.19a14.55,14.55,0,0,1-1.78-2.39,8,8,0,0,0-3.63-2.1c-4.55-1.63-9.33-3.3-14.1-2.55a12.52,12.52,0,0,1-3.93.36c-2.47-.42-4.16-2.85-6.58-3.49-2-.53-4.08.25-6.14.23-5.18-.08-9.76-5.22-14.77-3.88-1.35.36-2.61,1.19-4,1.15a7.33,7.33,0,0,1-2.87-1A36.23,36.23,0,0,0,69.2,116.4c-1.79.41-3.68.95-5.43.39-1.29-.43-2.5-1.45-3.84-1.18-2.14.42-3.3,3.9-5.36,3.17-1.22-.44-1.43-2.08-2.32-3-2.91-3.11-8.36,3.5-11.9,1.14-1.56-1-2.23-3.64-4.1-3.55-2.55.13-1.86,4.49-3.82,6.13a5,5,0,0,1-2.87.81l-11.22.77a7.26,7.26,0,0,0-4,1.08c-1.92,1.47-2.11,4.65-4.27,5.75-1.17.59-2.6.37-3.82.85C3,130,3.39,134.66,2.85,138.14a10.76,10.76,0,0,1-2.61,5.49V299.68Z"/><g class="cls-2"><path d="M750,299.68V143c0-3.45,1.16-9.92-.13-13.07-3.44-8.36-17.35-4.25-21.24,2.9L699.92,139c-4.8,1-10.7,3.36-10.75,8.27l-30.88,7.49c.86,2.49-2.26,4.56-4.89,4.72s-5.55-.44-7.67,1.12c-1.57,1.15-2.21,3.19-3.51,4.64-2.36,2.61-6.3,2.83-9.65,3.91s-6.8,4.5-5.25,7.66c-12.81-1.68-23.64,9.76-36.38,11.85-2.13.35-4.45.4-6.3-.71s-2.91-3.73-1.72-5.53c-5.17-2.51-11.57,2-16.94-.06-2.34-.89-4.08-2.9-6.32-4s-5.64-.88-6.44,1.5c-.74-6.25-9.45-7-15.67-6.06L520,176.55c-2.16.33-4.43.73-6.07,2.16s-2.21,4.3-.58,5.75l-11.8,1c1.38,3.92-3.79,6.79-7.88,7.52s-9.41,2.55-9.11,6.69c-5.33-2.76-12,0-16.3,4.2a28.44,28.44,0,0,0-5.28,7,31.93,31.93,0,0,1-2.82,4.93c-4.07,5.09-13.29,4.43-16.6-1.19-4.7,5.92-13.8,4.91-21.2,3.33L408.6,215c-2.34-.5-5-1.23-6-3.4-.7-1.47-.49-3.36-1.57-4.58-1.84-2.08-5.14-.37-7.72.68-8.06,3.28-14.55-3.29-21.87-4.81s-11.23.15-17.79-5.74l-9-8.08A37.21,37.21,0,0,0,338,184c-8.78-4.9-22-.18-24.07,9.68-5.28-1.1-10.8-2.2-16-.83-2.64.69-5.13,2-7.83,2.39s-5.9-.48-7.06-2.95c-.89-1.9-.34-4.17-.91-6.19-1.1-3.92-6.15-5.54-10-4.36s-6.85,4.29-9.61,7.27a19.44,19.44,0,0,0-22.11-3.64c-.42-5.62-6.87-9.91-12.21-8.11-4.18,1.41-8.43,5.75-12.15,3.38-1.55-1-2.36-2.93-4-3.68-3.42-1.51-7,3.05-10.68,2.19-3-.7-4.05-4.54-6.63-6.23-3-2-7-.48-10.56.18-5.39,1-7.73-2.73-10.47-6-1.92,2.87-8.44,3.66-8.45-1.17-3.46,3.43-10.58.57-10.7-4.3-2.58,2.71-8.09.76-8.4-3a11.2,11.2,0,0,1-8.56,2.87c1.09-1.35.07-3.52-1.51-4.23s-3.4-.39-5.1-.06L116.71,160c-3,.58-6.7.89-8.46-1.58-1.65-2.31-1.16-6.48-3.91-7.12-2-.46-3.79,1.7-5.85,1.63-3.18-.1-4-4.88-6.86-6.2-2.72-1.23-6.11,1.11-8.81-.18-2.12-1-2.87-3.83-5-4.87-1.81-.91-4-.18-6-.17-5.11,0-9.45-5.49-8.21-10.44-5.53,2.11-12.51-1.47-14-7.2-3.43,2.62-9.31.31-10-3.94a11.43,11.43,0,0,0-.51-2.81c-1.12-2.5-4.68-2.28-7.35-1.66l-2.07-7c-3.66,2.17-8.85-2.77-6.86-6.53-2.14-1-4.21,1.36-6.25,2.56s-5.76-1.22-3.82-2.59a10.29,10.29,0,0,0-8.88,5.53A5.45,5.45,0,0,0,0,103.86V299.68Z"/><path d="M290.7,180a1.39,1.39,0,0,1,.13.71,3.7,3.7,0,0,0,1.52,2.81,2.6,2.6,0,0,1-1.46-.7,1,1,0,0,0,.49.94l-.52,0,1.51,1.76a2,2,0,0,1-1.17-.48,4.43,4.43,0,0,0,1.86,4c-.49.33-1.11-.13-1.52-.55a.8.8,0,0,0,.09.8l-.72-.23a11.07,11.07,0,0,0,1.74,2.74l-1.46-.37a3.46,3.46,0,0,0,1.32,2.39.72.72,0,0,0-.06,1.18,4.34,4.34,0,0,1,.43.23c.31.28.14.78-.06,1.15-.33,0-.59.33-.55.66a1.76,1.76,0,0,0,.48.86l1.5,1.71-1.1-.21a4,4,0,0,0,1.06,1.47,1,1,0,0,1-.91-.07,17.28,17.28,0,0,1,1.28,1.88,2.56,2.56,0,0,1-1.51-.46c.13.53.27,1.06.4,1.59a7.16,7.16,0,0,0-3.38-.92,3,3,0,0,1-1.58-.25c-.21-.13-.39-.32-.63-.32a.94.94,0,0,0-.52.29,4.61,4.61,0,0,1-3,1.11,7,7,0,0,0,1.69-1.87l-.73,0c-.09-.4.37-.67.74-.83s.79-.53.6-.89l-1,.13,1.54-1.4a1.63,1.63,0,0,1,.13-1.61l-1.41.31,1.59-1.13-.61-.19a8.09,8.09,0,0,0,2-5.05l-2,1.18,1.52-1.34-.89-.1c-.08-.27.15-.52.38-.67a1.56,1.56,0,0,0,.63-.5c.14-.23,0-.63-.29-.58a12.39,12.39,0,0,0,1-2.56,3.11,3.11,0,0,0-1.71.45l1.34-1.05-1.1-.22a2.23,2.23,0,0,0,1.6-1.74l-.91-.13a4.42,4.42,0,0,1,1-1.07,2.54,2.54,0,0,1-.95-.12l.75-.83a3,3,0,0,1-1-.08c.28-.38.8-.48,1.23-.68a1.2,1.2,0,0,0,.7-1.26A.38.38,0,0,1,290.7,180Z"/><path d="M491.16,180a1.39,1.39,0,0,1,.13.71,3.7,3.7,0,0,0,1.52,2.81,2.6,2.6,0,0,1-1.46-.7,1,1,0,0,0,.49.94l-.52,0,1.51,1.76a2,2,0,0,1-1.17-.48,4.43,4.43,0,0,0,1.86,4c-.49.33-1.11-.13-1.52-.55a.8.8,0,0,0,.09.8l-.72-.23a11.07,11.07,0,0,0,1.74,2.74l-1.46-.37a3.42,3.42,0,0,0,1.32,2.39.72.72,0,0,0-.06,1.18,4.34,4.34,0,0,1,.43.23c.31.28.14.78-.06,1.15-.33,0-.59.33-.55.66a1.76,1.76,0,0,0,.48.86l1.5,1.71-1.1-.21a4,4,0,0,0,1.06,1.47,1,1,0,0,1-.91-.07,17.28,17.28,0,0,1,1.28,1.88,2.56,2.56,0,0,1-1.51-.46l.4,1.59a7.16,7.16,0,0,0-3.38-.92,3,3,0,0,1-1.58-.25c-.21-.13-.39-.32-.63-.32a.94.94,0,0,0-.52.29,4.61,4.61,0,0,1-3,1.11,7,7,0,0,0,1.69-1.87l-.73,0c-.09-.4.37-.67.74-.83s.79-.53.6-.89l-1,.13,1.54-1.4a1.63,1.63,0,0,1,.13-1.61l-1.41.31,1.59-1.13-.61-.19a8.09,8.09,0,0,0,2.05-5.05l-2,1.18,1.52-1.34-.89-.1c-.08-.27.15-.52.38-.67a1.56,1.56,0,0,0,.63-.5c.14-.23,0-.63-.29-.58a12.39,12.39,0,0,0,1-2.56,3.11,3.11,0,0,0-1.71.45l1.34-1.05-1.1-.22a2.23,2.23,0,0,0,1.6-1.74l-.91-.13a4.42,4.42,0,0,1,1-1.07,2.54,2.54,0,0,1-.95-.12l.75-.83a3,3,0,0,1-1-.08c.28-.38.8-.48,1.23-.68a1.2,1.2,0,0,0,.7-1.26A.38.38,0,0,1,491.16,180Z"/><path d="M427.81,209.67a1.45,1.45,0,0,1,.13.72,3.74,3.74,0,0,0,1.51,2.81,2.61,2.61,0,0,1-1.45-.7,1,1,0,0,0,.49.94l-.52,0,1.51,1.77a2.2,2.2,0,0,1-1.18-.48,4.42,4.42,0,0,0,1.87,4c-.49.33-1.11-.12-1.52-.55a.82.82,0,0,0,.08.8l-.71-.22a10.83,10.83,0,0,0,1.74,2.73l-1.46-.36a3.45,3.45,0,0,0,1.32,2.39.72.72,0,0,0-.06,1.18,2.22,2.22,0,0,1,.43.23c.31.27.14.78-.06,1.14-.33-.05-.59.34-.55.67a1.59,1.59,0,0,0,.48.85l1.5,1.72-1.1-.21a4.08,4.08,0,0,0,1.06,1.47,1.08,1.08,0,0,1-.91-.08,18.31,18.31,0,0,1,1.28,1.88,2.62,2.62,0,0,1-1.51-.45l.4,1.59a7.16,7.16,0,0,0-3.38-.92,3,3,0,0,1-1.59-.26c-.2-.12-.39-.32-.62-.31a.91.91,0,0,0-.52.29,4.68,4.68,0,0,1-3,1.11,7.22,7.22,0,0,0,1.69-1.88l-.73-.05c-.09-.39.37-.66.73-.82s.79-.54.6-.89l-1,.12,1.54-1.4a1.63,1.63,0,0,1,.13-1.61l-1.41.32,1.59-1.14-.61-.18a8.15,8.15,0,0,0,2.05-5L424,222l1.52-1.34-.9-.11c-.07-.26.15-.51.38-.66a1.61,1.61,0,0,0,.64-.5c.14-.24,0-.64-.29-.59a12.39,12.39,0,0,0,1-2.56,3.11,3.11,0,0,0-1.71.45l1.34-1-1.1-.21a2.23,2.23,0,0,0,1.6-1.74l-.92-.13a4.29,4.29,0,0,1,1-1.07,2.86,2.86,0,0,1-1-.13c.26-.27.51-.55.76-.82a3.39,3.39,0,0,1-1.05-.08c.29-.39.81-.49,1.24-.69a1.18,1.18,0,0,0,.7-1.26A.4.4,0,0,1,427.81,209.67Z"/><path d="M359.25,192a1.39,1.39,0,0,1,.13.71,3.73,3.73,0,0,0,1.52,2.81,2.57,2.57,0,0,1-1.45-.7,1,1,0,0,0,.48.94l-.52,0c.51.58,1,1.17,1.52,1.76a2.06,2.06,0,0,1-1.18-.48,4.43,4.43,0,0,0,1.87,4c-.49.33-1.12-.13-1.53-.55a.82.82,0,0,0,.09.8l-.71-.23a10.52,10.52,0,0,0,1.74,2.74l-1.47-.37a3.47,3.47,0,0,0,1.33,2.39A.71.71,0,0,0,361,207c.14.09.3.13.43.23.31.28.13.78-.06,1.15-.33,0-.59.33-.56.66a1.7,1.7,0,0,0,.49.86l1.5,1.71-1.1-.21a3.88,3.88,0,0,0,1.06,1.47,1,1,0,0,1-.91-.07,18.69,18.69,0,0,1,1.28,1.87,2.6,2.6,0,0,1-1.51-.45l.39,1.59a7.13,7.13,0,0,0-3.38-.92,3,3,0,0,1-1.58-.25c-.2-.13-.39-.32-.63-.32a1,1,0,0,0-.52.29,4.6,4.6,0,0,1-3,1.11,7.18,7.18,0,0,0,1.69-1.87l-.74,0c-.08-.4.37-.67.74-.83s.79-.53.6-.89l-1,.13,1.54-1.4a1.63,1.63,0,0,1,.14-1.61l-1.42.31,1.6-1.13-.61-.19a8.13,8.13,0,0,0,2-5l-2,1.18L357,203l-.89-.1c-.07-.27.15-.52.38-.67a1.66,1.66,0,0,0,.64-.5c.13-.24,0-.63-.29-.58a12,12,0,0,0,1-2.56,3.1,3.1,0,0,0-1.7.45l1.33-1.05-1.09-.22a2.26,2.26,0,0,0,1.6-1.74l-.92-.13a4.42,4.42,0,0,1,1-1.07,2.56,2.56,0,0,1-.95-.12l.76-.83a3.09,3.09,0,0,1-1.05-.08c.28-.38.8-.48,1.24-.68a1.21,1.21,0,0,0,.7-1.26A.37.37,0,0,1,359.25,192Z"/><path d="M520.91,172.89a1.41,1.41,0,0,1,.13.71,3.74,3.74,0,0,0,1.52,2.82,2.68,2.68,0,0,1-1.46-.71,1,1,0,0,0,.49.94l-.52,0,1.51,1.76a2,2,0,0,1-1.17-.48,4.43,4.43,0,0,0,1.86,4c-.48.33-1.11-.13-1.52-.55a.8.8,0,0,0,.09.8l-.72-.23a11.07,11.07,0,0,0,1.74,2.74l-1.46-.37a3.48,3.48,0,0,0,1.32,2.4.71.71,0,0,0-.06,1.17,3,3,0,0,1,.43.24c.31.27.14.77-.06,1.14-.33-.05-.59.33-.55.66a1.7,1.7,0,0,0,.49.86l1.49,1.72-1.1-.21a4.16,4.16,0,0,0,1.06,1.47,1.08,1.08,0,0,1-.91-.08,16,16,0,0,1,1.28,1.88,2.62,2.62,0,0,1-1.51-.45l.4,1.59a7.06,7.06,0,0,0-3.38-.93,2.91,2.91,0,0,1-1.58-.25c-.2-.13-.39-.32-.63-.31a.87.87,0,0,0-.52.28,4.61,4.61,0,0,1-3,1.11,7.06,7.06,0,0,0,1.7-1.87l-.74-.05c-.09-.39.37-.67.74-.83s.79-.53.6-.89l-1,.13,1.54-1.4a1.6,1.6,0,0,1,.14-1.61l-1.42.31,1.59-1.13-.61-.19a8.07,8.07,0,0,0,2.05-5.05l-2,1.18,1.52-1.34-.89-.1c-.08-.27.15-.52.38-.66a1.75,1.75,0,0,0,.63-.5c.14-.24,0-.64-.29-.59a11.86,11.86,0,0,0,1-2.56,3.11,3.11,0,0,0-1.71.45l1.34-1-1.09-.21a2.26,2.26,0,0,0,1.59-1.74l-.91-.14a4.42,4.42,0,0,1,1-1.07,2.54,2.54,0,0,1-1-.12l.75-.83a3,3,0,0,1-1-.08c.28-.38.8-.48,1.24-.68a1.22,1.22,0,0,0,.7-1.26A.37.37,0,0,1,520.91,172.89Z"/><path d="M648.71,145a1.56,1.56,0,0,1,.14.71,3.73,3.73,0,0,0,1.51,2.82,2.65,2.65,0,0,1-1.45-.71,1,1,0,0,0,.48,1l-.52,0,1.52,1.76a2.06,2.06,0,0,1-1.18-.48,4.44,4.44,0,0,0,1.87,4c-.49.33-1.12-.12-1.53-.55a.82.82,0,0,0,.09.8l-.71-.23a10.35,10.35,0,0,0,1.74,2.74l-1.46-.36a3.45,3.45,0,0,0,1.32,2.39.71.71,0,0,0-.06,1.18,2.55,2.55,0,0,1,.43.23c.31.27.13.77-.06,1.14-.33,0-.59.33-.56.67a1.67,1.67,0,0,0,.49.85l1.5,1.72-1.1-.21a4,4,0,0,0,1.06,1.47,1.08,1.08,0,0,1-.91-.08,20.07,20.07,0,0,1,1.28,1.88,2.6,2.6,0,0,1-1.51-.45l.39,1.59a6.9,6.9,0,0,0-3.37-.92,3,3,0,0,1-1.59-.26c-.2-.13-.39-.32-.63-.31a.9.9,0,0,0-.52.28,4.66,4.66,0,0,1-3,1.12,7.22,7.22,0,0,0,1.69-1.88l-.74-.05c-.08-.39.37-.66.74-.83s.79-.53.6-.89l-1,.13,1.54-1.4a1.63,1.63,0,0,1,.14-1.61l-1.42.31c.54-.37,1.07-.75,1.6-1.13l-.61-.19a8.11,8.11,0,0,0,2-5l-2,1.17,1.52-1.33-.89-.11c-.07-.26.15-.52.38-.66s.51-.26.64-.5,0-.64-.29-.59a11.82,11.82,0,0,0,1-2.56,3.1,3.1,0,0,0-1.7.45l1.33-1.05-1.09-.21a2.27,2.27,0,0,0,1.6-1.74l-.92-.13a4.47,4.47,0,0,1,1-1.08,2.56,2.56,0,0,1-1-.12l.76-.83a3.09,3.09,0,0,1-1.05-.07c.28-.39.8-.49,1.24-.69a1.19,1.19,0,0,0,.7-1.26A.37.37,0,0,1,648.71,145Z"/><path d="M295.56,188.18a1.43,1.43,0,0,1,.13.71,3.74,3.74,0,0,0,1.52,2.82,2.68,2.68,0,0,1-1.46-.71,1,1,0,0,0,.49.95l-.52,0,1.51,1.76a2,2,0,0,1-1.17-.48,4.43,4.43,0,0,0,1.86,4c-.48.33-1.11-.12-1.52-.55a.79.79,0,0,0,.09.8l-.72-.23a10.89,10.89,0,0,0,1.74,2.74l-1.46-.36a3.48,3.48,0,0,0,1.32,2.39.71.71,0,0,0-.06,1.17,3,3,0,0,1,.43.24c.31.27.14.77-.06,1.14-.33,0-.59.33-.55.66a1.72,1.72,0,0,0,.48.86l1.5,1.72-1.1-.21a4.08,4.08,0,0,0,1.06,1.47,1.08,1.08,0,0,1-.91-.08,18.31,18.31,0,0,1,1.28,1.88,2.62,2.62,0,0,1-1.51-.45c.13.53.27,1.06.4,1.59a6.94,6.94,0,0,0-3.38-.92,3,3,0,0,1-1.58-.26c-.21-.13-.39-.32-.63-.31a.87.87,0,0,0-.52.28,4.67,4.67,0,0,1-3,1.12,7,7,0,0,0,1.69-1.88l-.73,0c-.09-.39.37-.66.74-.83s.79-.53.6-.89l-1,.13L292,207a1.63,1.63,0,0,1,.13-1.61l-1.41.31,1.59-1.13-.61-.19a8.06,8.06,0,0,0,2.05-5l-2,1.17,1.52-1.33-.89-.11c-.08-.26.15-.52.38-.66a1.75,1.75,0,0,0,.63-.5c.14-.24,0-.64-.29-.59a12.39,12.39,0,0,0,1-2.56,3.11,3.11,0,0,0-1.71.45l1.34-1.05-1.09-.21a2.24,2.24,0,0,0,1.59-1.74l-.91-.13a4.47,4.47,0,0,1,1-1.08,2.54,2.54,0,0,1-.95-.12l.75-.83a3,3,0,0,1-1-.07c.28-.39.8-.49,1.23-.69a1.19,1.19,0,0,0,.7-1.26A.38.38,0,0,1,295.56,188.18Z"/><path d="M174.32,157.66a1.3,1.3,0,0,1,.14.71,3.72,3.72,0,0,0,1.51,2.81,2.57,2.57,0,0,1-1.45-.7,1,1,0,0,0,.48.94l-.51,0,1.51,1.76a2.06,2.06,0,0,1-1.18-.48,4.45,4.45,0,0,0,1.87,4c-.49.33-1.12-.13-1.53-.55a.82.82,0,0,0,.09.8l-.71-.23a11.07,11.07,0,0,0,1.74,2.74l-1.46-.37a3.42,3.42,0,0,0,1.32,2.39.71.71,0,0,0-.06,1.18,4.34,4.34,0,0,1,.43.23c.31.28.13.78-.06,1.15-.33-.05-.59.33-.55.66a1.62,1.62,0,0,0,.48.86l1.5,1.71-1.1-.21a4,4,0,0,0,1.06,1.47,1,1,0,0,1-.91-.07,18.69,18.69,0,0,1,1.28,1.87,2.6,2.6,0,0,1-1.51-.45l.39,1.59a7.09,7.09,0,0,0-3.37-.92,3,3,0,0,1-1.59-.25c-.2-.13-.39-.32-.63-.32a.91.91,0,0,0-.51.29,4.62,4.62,0,0,1-3,1.11,7.18,7.18,0,0,0,1.69-1.87l-.74-.05c-.08-.4.38-.67.74-.83s.79-.53.6-.89l-1,.13c.51-.47,1-.94,1.54-1.4a1.6,1.6,0,0,1,.13-1.61l-1.41.31,1.59-1.13-.61-.19a8.15,8.15,0,0,0,2.05-5.05l-2,1.18,1.52-1.34-.89-.1c-.07-.27.15-.52.38-.67a1.59,1.59,0,0,0,.64-.5c.13-.24,0-.63-.29-.58a12,12,0,0,0,1-2.56,3.1,3.1,0,0,0-1.7.45l1.34-1.05-1.1-.22a2.23,2.23,0,0,0,1.6-1.74l-.92-.13a4.28,4.28,0,0,1,1-1.07,2.59,2.59,0,0,1-1-.12l.76-.83a3.09,3.09,0,0,1-1.05-.08c.28-.38.81-.48,1.24-.68a1.2,1.2,0,0,0,.7-1.26A.37.37,0,0,1,174.32,157.66Z"/><path d="M169.66,158.92a1.3,1.3,0,0,1,.14.71,3.72,3.72,0,0,0,1.51,2.81,2.57,2.57,0,0,1-1.45-.7,1,1,0,0,0,.48.94l-.51,0,1.51,1.76a2.06,2.06,0,0,1-1.18-.48,4.45,4.45,0,0,0,1.87,4c-.49.33-1.12-.13-1.53-.55a.82.82,0,0,0,.09.8l-.71-.23a11.07,11.07,0,0,0,1.74,2.74l-1.46-.37a3.42,3.42,0,0,0,1.32,2.39.71.71,0,0,0-.06,1.18,2.93,2.93,0,0,1,.43.23c.31.28.13.78-.06,1.15-.33-.05-.59.33-.55.66a1.62,1.62,0,0,0,.48.86l1.5,1.71-1.1-.21a4,4,0,0,0,1.06,1.47,1,1,0,0,1-.91-.07,18.69,18.69,0,0,1,1.28,1.87,2.6,2.6,0,0,1-1.51-.45l.39,1.59a7.09,7.09,0,0,0-3.37-.92,3,3,0,0,1-1.59-.25c-.2-.13-.39-.32-.63-.32a.91.91,0,0,0-.51.29,4.62,4.62,0,0,1-3,1.11,7.18,7.18,0,0,0,1.69-1.87l-.74-.05c-.08-.4.38-.67.74-.83s.79-.53.6-.89l-1,.13c.51-.47,1-.94,1.54-1.4a1.6,1.6,0,0,1,.13-1.61l-1.41.31,1.59-1.13-.61-.19a8.15,8.15,0,0,0,2.05-5.05l-2,1.18,1.52-1.34-.89-.1c-.07-.27.15-.52.38-.67a1.59,1.59,0,0,0,.64-.5c.13-.24,0-.63-.29-.58a12,12,0,0,0,1-2.56,3.1,3.1,0,0,0-1.7.45l1.34-1-1.1-.22a2.23,2.23,0,0,0,1.6-1.74l-.92-.13a4.28,4.28,0,0,1,1-1.07,2.59,2.59,0,0,1-1-.12l.76-.83a3.09,3.09,0,0,1-1.05-.08c.28-.38.81-.48,1.24-.68a1.2,1.2,0,0,0,.7-1.26A.37.37,0,0,1,169.66,158.92Z"/><path d="M92.57,139.5a1.43,1.43,0,0,1,.13.71A3.72,3.72,0,0,0,94.22,143a2.6,2.6,0,0,1-1.46-.7,1,1,0,0,0,.49.94l-.52,0L94.24,145a2.09,2.09,0,0,1-1.17-.47,4.42,4.42,0,0,0,1.86,4c-.49.33-1.11-.12-1.52-.55a.79.79,0,0,0,.09.8l-.72-.22a11,11,0,0,0,1.74,2.73L93.06,151a3.45,3.45,0,0,0,1.32,2.39.72.72,0,0,0-.06,1.18,2.22,2.22,0,0,1,.43.23c.31.27.14.78-.06,1.14-.33,0-.59.34-.55.67a1.73,1.73,0,0,0,.48.85l1.5,1.72-1.1-.21a4.08,4.08,0,0,0,1.06,1.47,1.08,1.08,0,0,1-.91-.08,18.31,18.31,0,0,1,1.28,1.88,2.62,2.62,0,0,1-1.51-.45l.4,1.59a7.16,7.16,0,0,0-3.38-.92,3,3,0,0,1-1.58-.26c-.21-.12-.39-.32-.63-.31a.83.83,0,0,0-.52.29,4.66,4.66,0,0,1-3,1.11,7,7,0,0,0,1.69-1.88l-.73-.05c-.09-.39.37-.66.74-.83s.79-.53.6-.88l-1,.12,1.54-1.4a1.63,1.63,0,0,1,.13-1.61l-1.41.31,1.59-1.13-.61-.18a8.09,8.09,0,0,0,2-5.05l-2,1.18,1.52-1.34-.89-.11c-.08-.26.14-.51.38-.66a1.65,1.65,0,0,0,.63-.5c.14-.24,0-.64-.29-.59a12.39,12.39,0,0,0,1-2.56,3.11,3.11,0,0,0-1.71.45l1.34-1.05-1.1-.21a2.23,2.23,0,0,0,1.6-1.74l-.92-.13a4.72,4.72,0,0,1,1-1.08,2.54,2.54,0,0,1-1-.12l.75-.83a3,3,0,0,1-1-.07c.28-.39.8-.49,1.23-.69a1.18,1.18,0,0,0,.7-1.26A.38.38,0,0,1,92.57,139.5Z"/><path d="M432.45,209.53a1.56,1.56,0,0,1,.14.71,3.71,3.71,0,0,0,1.51,2.82,2.57,2.57,0,0,1-1.45-.7,1,1,0,0,0,.48.94l-.52,0,1.52,1.77a2.2,2.2,0,0,1-1.18-.48,4.42,4.42,0,0,0,1.87,4c-.49.33-1.12-.12-1.53-.55a.82.82,0,0,0,.09.8l-.71-.22a10.56,10.56,0,0,0,1.74,2.73L433,221a3.45,3.45,0,0,0,1.32,2.39.71.71,0,0,0-.06,1.18,2.22,2.22,0,0,1,.43.23c.31.27.13.78-.06,1.14-.33,0-.59.34-.56.67a1.67,1.67,0,0,0,.49.85l1.5,1.72-1.1-.21a4,4,0,0,0,1.06,1.47,1.08,1.08,0,0,1-.91-.08,20.07,20.07,0,0,1,1.28,1.88,2.6,2.6,0,0,1-1.51-.45l.39,1.59a7.13,7.13,0,0,0-3.37-.92,3,3,0,0,1-1.59-.26c-.2-.12-.39-.32-.63-.31a1,1,0,0,0-.52.29,4.65,4.65,0,0,1-3,1.11,7.22,7.22,0,0,0,1.69-1.88l-.74,0c-.08-.39.37-.66.74-.83s.79-.53.6-.88l-1,.12c.52-.46,1-.93,1.54-1.4a1.63,1.63,0,0,1,.14-1.61l-1.42.32,1.6-1.14-.61-.18a8.13,8.13,0,0,0,2-5.05l-2,1.18,1.52-1.34-.89-.11c-.07-.26.15-.51.38-.66s.51-.26.64-.5,0-.64-.29-.59a11.82,11.82,0,0,0,1-2.56,3.1,3.1,0,0,0-1.7.45l1.33-1.05-1.09-.21a2.26,2.26,0,0,0,1.6-1.74l-.92-.13a4.25,4.25,0,0,1,1-1.07,2.8,2.8,0,0,1-.95-.13l.76-.82a3.37,3.37,0,0,1-1.05-.08c.28-.39.8-.49,1.24-.69a1.18,1.18,0,0,0,.7-1.26A.38.38,0,0,1,432.45,209.53Z"/></g><g class="cls-2"><path d="M750.24,164.12a5.91,5.91,0,0,0-4.32,2.87c-.75,1.31-1,2.93-2,4-2.6,2.81-7.36.07-11.06,1.06-4.72,1.26-7.93,8.52-12.33,6.42-1.23-.59-2.09-1.85-3.4-2.22-2.56-.72-4.58,2.34-5,5s-.27,5.68-2.26,7.44c-1.26,1.11-3,1.38-4.49,2.24s-2.44,3-1.21,4.16a44.35,44.35,0,0,0-22.7-7.23c1.19,2-2.3,3.92-4.41,2.87s-3.38-3.34-5.5-4.37c-3.87-1.87-9,2.73-7.47,6.77a8.56,8.56,0,0,0-11.09,5,5.49,5.49,0,0,1-1.12,2.5c-1.1,1.05-3,.62-4.28,1.45-2,1.33-1.14,4.46,0,6.62l-7.24-.16q.3,6.09.61,12.18a3.1,3.1,0,0,1-.17,1.46c-.68,1.44-2.92.91-4.1-.17s-2.28-2.59-3.88-2.56c-2.36,0-3.11,3.17-3.15,5.52a7.08,7.08,0,0,1-7.39.33,19.05,19.05,0,0,0-3.27-2c-3.06-1-6.34,3-4.74,5.8-2.43,3.06-7.2-3.18-10.77-1.6-1.85.82-2.18,3.24-3.08,5-2.3,4.62-10.06,4.87-12.64.41A13.7,13.7,0,0,0,586,229.9c-1.58-1.57-4.15-1.29-6.34-.91,0-2.43-.6-5.07-2.52-6.57s-5.33-1-6.1,1.27c-.49,1.47.18,3.18-.46,4.6-1.11,2.5-5.17,2.14-6.69,4.41-1.67,2.48.58,6.69-1.83,8.45-1.78,1.29-4.61-.14-6.35,1.2s-1,4.1-1.94,6c-2.34,4.72-11.76.89-13.8,5.74-.44,1.06-.36,2.32-1,3.28-2.06,3.08-8.16-.56-10.22,2.52a8.81,8.81,0,0,0-.79,3c-.75,3.3-4.16,5.45-7.53,5.81s-6.7-.65-9.93-1.67c-1.89-2.81-7-3.39-10.39-3.34a3.25,3.25,0,0,0-1.71.4c-1.82,1.19-.45,4.15-1.3,6.16-1.17,1.15-3.13,1-4.63.26s-2.81-1.77-4.39-2.23c-2.63-.75-5.4.36-7.91,1.45a2.93,2.93,0,0,0-1.77,1.42c-.37,1,.36,2.48-.53,3.09-3.43,2.33-8.61,3.08-11.6.22-.6,3.11-1.2,6.23-1.79,9.34a23.44,23.44,0,0,1-9.94-2.84c1.18,3.73-4.29,6.16-8.08,5.2s-7.56-3.45-11.3-2.3c-5.77,1.78-9.83,11.42-14.81,8-1.52-1-2.12-3-3.53-4.2-3.2-2.66-7.83.1-11.43,2.17s-9.85,2.16-10.24-2l-3.42,6.36A72.91,72.91,0,0,0,344,299.68H750.24Z"/><path d="M247.5,288.5l-6.06-1.29c-6.69-1.41-13.38-3-20.1-4.25-4.56-.86-11.85.93-15.59-.63a5.7,5.7,0,0,1-3.32-6.64c-2.56,1.23-5.23,2.48-8.07,2.5s-5.91-1.54-6.67-4.27c-.51-1.82-.09-4.15-1.6-5.28-2-1.52-4.58.92-6.89,2a6.75,6.75,0,0,1-9.07-4.86c-4-.86-5.57,1.68-9-.72-1.88-1.34-.9-5.79-4-7.43-4.94-2.59-5.73,4.24-9.43,4.1-3.42-.13-7.14-5.26-9.74-7.15-3,2.59-7.81,1.93-11-.46s-5-6.11-6.57-9.73c-2.4-5.5-7.17-12.36-12.64-9.9a10.29,10.29,0,0,0-16.63-10.84l-14.11-5.85c-1.8-.75-3.85-1.49-5.62-.69-4.49,2.05-1.14,10-4.85,13.29-2.46,2.14-6.2.78-9.39.09s-7.75.75-7.26,4c.27,1.83-5.46-2-5.28-2-5.09.37-1.86,2.49-5,5.06-1.93,1.57-5.64,3.34-8.48,5.56-2.14,1.68-3.79,3.61-3.81,5.9,0,3.31,2.83,6.49,1.75,9.61-2.56.52-4.49-2.15-6-4.29s-4.43-4.24-6.43-2.56c-2.36,2-.06,6.82-2.66,8.5-3.61,2.32-6.17-4.83-9.59-4.43-1.57.19-2.92,1.33-4.2,2.83v41H299.71c-5.78-1.36-11.58-2.59-17.38-3.82Z"/><path d="M603.41,131.65a6.91,6.91,0,0,0-.63,3.45,18.05,18.05,0,0,1-7.33,13.6,12.57,12.57,0,0,0,7-3.4,4.75,4.75,0,0,1-2.34,4.55l2.5-.13-7.3,8.52a10,10,0,0,0,5.68-2.31,21.41,21.41,0,0,1-9,19.45c2.36,1.6,5.39-.6,7.37-2.65a3.9,3.9,0,0,1-.43,3.87l3.45-1.11A51.92,51.92,0,0,1,594,188.72L601,187c-1,4.41-2.43,9.33-6.39,11.55a3.44,3.44,0,0,1,.29,5.69,14.79,14.79,0,0,0-2.08,1.12c-1.49,1.32-.65,3.76.29,5.52,1.59-.23,2.85,1.62,2.67,3.22a8,8,0,0,1-2.34,4.13q-3.62,4.14-7.24,8.29l5.31-1a19.6,19.6,0,0,1-5.11,7.1,5.19,5.19,0,0,0,4.4-.37,87.38,87.38,0,0,0-6.19,9.07,12.54,12.54,0,0,0,7.29-2.18c-.63,2.56-1.27,5.12-1.9,7.68a34.33,34.33,0,0,1,16.31-4.45c2.62,0,5.44.17,7.65-1.23,1-.61,1.89-1.55,3-1.52a4.4,4.4,0,0,1,2.51,1.39,22.4,22.4,0,0,0,14.62,5.37,34.84,34.84,0,0,1-8.18-9.06l3.56-.24c.42-1.9-1.79-3.21-3.57-4s-3.81-2.57-2.89-4.29l4.91.61-7.44-6.76a7.83,7.83,0,0,0-.65-7.78l6.84,1.51L619,210.85l3-.91a39.24,39.24,0,0,1-9.89-24.39l9.72,5.7-7.34-6.47,4.31-.51c.35-1.27-.72-2.5-1.84-3.2s-2.43-1.27-3.08-2.42.11-3.08,1.4-2.84a57.94,57.94,0,0,1-5-12.37,14.9,14.9,0,0,1,8.23,2.19l-6.45-5.08,5.28-1a10.83,10.83,0,0,1-7.71-8.41l4.43-.63a21.33,21.33,0,0,0-4.85-5.18,12.82,12.82,0,0,0,4.6-.6l-3.66-4a15.13,15.13,0,0,0,5.06-.38c-1.36-1.86-3.88-2.34-6-3.3a5.8,5.8,0,0,1-3.38-6.1A1.85,1.85,0,0,0,603.41,131.65Z"/><path d="M577.88,174.8a6.87,6.87,0,0,1,.63,3.44,18.06,18.06,0,0,0,7.33,13.6,12.62,12.62,0,0,1-7-3.39,4.77,4.77,0,0,0,2.34,4.55l-2.5-.13,7.3,8.52a10,10,0,0,1-5.68-2.32,21.42,21.42,0,0,0,9,19.46c-2.36,1.6-5.39-.6-7.36-2.66a3.88,3.88,0,0,0,.42,3.87l-3.45-1.1a52.14,52.14,0,0,0,8.41,13.22l-7.07-1.76c1,4.42,2.43,9.33,6.39,11.56a3.44,3.44,0,0,0-.29,5.69,13.83,13.83,0,0,1,2.08,1.12c1.49,1.32.65,3.75-.29,5.51-1.59-.22-2.85,1.62-2.67,3.22a8.09,8.09,0,0,0,2.34,4.14l7.24,8.29-5.31-1a19.55,19.55,0,0,0,5.11,7.11,5.13,5.13,0,0,1-4.39-.38,89,89,0,0,1,6.18,9.08,12.62,12.62,0,0,1-7.29-2.18c.63,2.56,1.27,5.12,1.9,7.68a34.18,34.18,0,0,0-16.31-4.45c-2.62,0-5.44.17-7.65-1.23-1-.62-1.89-1.56-3-1.52a4.34,4.34,0,0,0-2.51,1.39,22.45,22.45,0,0,1-14.62,5.37,35,35,0,0,0,8.18-9.06l-3.56-.24c-.41-1.9,1.79-3.21,3.57-4s3.81-2.58,2.89-4.29l-4.91.61,7.44-6.77a7.81,7.81,0,0,1,.65-7.77l-6.84,1.5,7.71-5.47-3-.9a39.29,39.29,0,0,0,9.89-24.39l-9.72,5.69,7.34-6.46-4.31-.52c-.35-1.27.72-2.49,1.84-3.2s2.43-1.26,3.08-2.41-.1-3.08-1.4-2.84a58.37,58.37,0,0,0,5-12.37,14.9,14.9,0,0,0-8.23,2.19l6.45-5.09-5.28-1a10.82,10.82,0,0,0,7.71-8.4l-4.43-.63a21.19,21.19,0,0,1,4.85-5.19,12.59,12.59,0,0,1-4.6-.59l3.66-4a15.39,15.39,0,0,1-5.06-.37c1.36-1.87,3.88-2.34,6-3.31a5.77,5.77,0,0,0,3.38-6.1A1.87,1.87,0,0,1,577.88,174.8Z"/><path d="M648.58,150.8a6.77,6.77,0,0,1,.64,3.44,18,18,0,0,0,7.33,13.6,12.62,12.62,0,0,1-7-3.39,4.77,4.77,0,0,0,2.34,4.55l-2.5-.13,7.3,8.52a10,10,0,0,1-5.68-2.32,21.42,21.42,0,0,0,9,19.46c-2.36,1.6-5.39-.6-7.37-2.66a3.9,3.9,0,0,0,.43,3.87l-3.45-1.1A51.87,51.87,0,0,0,658,207.86L651,206.1c1,4.42,2.43,9.33,6.39,11.56a3.44,3.44,0,0,0-.29,5.69,13.83,13.83,0,0,1,2.08,1.12c1.49,1.32.65,3.75-.29,5.51-1.59-.22-2.85,1.62-2.67,3.22s1.28,2.92,2.34,4.14l7.24,8.29-5.31-1a19.55,19.55,0,0,0,5.11,7.11,5.16,5.16,0,0,1-4.4-.38,87.51,87.51,0,0,1,6.19,9.08,12.62,12.62,0,0,1-7.29-2.18c.63,2.56,1.27,5.12,1.9,7.68a34.21,34.21,0,0,0-16.31-4.45c-2.62,0-5.44.17-7.66-1.23-1-.62-1.88-1.56-3-1.52a4.34,4.34,0,0,0-2.51,1.39,22.45,22.45,0,0,1-14.62,5.37,34.78,34.78,0,0,0,8.17-9.06l-3.55-.24c-.42-1.9,1.79-3.21,3.57-4s3.81-2.58,2.89-4.29l-4.91.61,7.44-6.77a7.81,7.81,0,0,1,.65-7.77l-6.84,1.5L633,230l-3-.9a39.22,39.22,0,0,0,9.88-24.39l-9.71,5.69,7.34-6.46-4.31-.52c-.35-1.27.72-2.49,1.84-3.2s2.43-1.26,3.08-2.41-.11-3.08-1.41-2.84a57.88,57.88,0,0,0,5-12.37,14.9,14.9,0,0,0-8.23,2.19l6.45-5.09-5.29-1a10.81,10.81,0,0,0,7.72-8.4l-4.43-.63a21.19,21.19,0,0,1,4.85-5.19,12.59,12.59,0,0,1-4.6-.59l3.66-4a15.39,15.39,0,0,1-5.06-.37c1.36-1.87,3.88-2.34,6-3.31a5.78,5.78,0,0,0,3.38-6.1A1.85,1.85,0,0,1,648.58,150.8Z"/><path d="M65.93,137.8a7,7,0,0,0-.64,3.44A18,18,0,0,1,58,154.84a12.62,12.62,0,0,0,7-3.39A4.78,4.78,0,0,1,62.65,156l2.5-.13-7.31,8.52a10,10,0,0,0,5.68-2.32,21.39,21.39,0,0,1-9,19.46c2.36,1.6,5.39-.6,7.36-2.66a3.9,3.9,0,0,1-.42,3.87l3.45-1.1a52.14,52.14,0,0,1-8.41,13.22l7.06-1.76c-1,4.42-2.43,9.33-6.38,11.56a3.44,3.44,0,0,1,.29,5.69,13.83,13.83,0,0,0-2.08,1.12c-1.49,1.32-.65,3.75.29,5.51,1.59-.22,2.85,1.62,2.67,3.22A8.09,8.09,0,0,1,56,224.34q-3.61,4.14-7.24,8.29l5.31-1A19.55,19.55,0,0,1,49,238.72a5.13,5.13,0,0,0,4.39-.38,89,89,0,0,0-6.18,9.08,12.62,12.62,0,0,0,7.29-2.18q-1,3.84-1.9,7.68a34.18,34.18,0,0,1,16.31-4.45c2.62,0,5.44.17,7.65-1.23,1-.62,1.89-1.56,3-1.52a4.34,4.34,0,0,1,2.51,1.39,22.43,22.43,0,0,0,14.62,5.37,35,35,0,0,1-8.18-9.06l3.56-.24c.41-1.9-1.79-3.21-3.57-4s-3.81-2.58-2.89-4.29l4.91.61-7.44-6.77a7.79,7.79,0,0,0-.66-7.77l6.85,1.5L81.56,217l3-.9a39.29,39.29,0,0,1-9.89-24.39l9.72,5.69L77,190.93l4.31-.52c.35-1.27-.72-2.49-1.84-3.2S77,186,76.39,184.8s.1-3.08,1.4-2.84a58.37,58.37,0,0,1-5-12.37A15,15,0,0,1,81,171.78l-6.45-5.09,5.28-1a10.82,10.82,0,0,1-7.71-8.4l4.43-.63a21.39,21.39,0,0,0-4.85-5.19,12.59,12.59,0,0,0,4.6-.59l-3.66-4a15.39,15.39,0,0,0,5.06-.37c-1.36-1.87-3.88-2.34-6-3.31a5.77,5.77,0,0,1-3.38-6.1A1.87,1.87,0,0,0,65.93,137.8Z"/><path d="M100.84,179.06a4.48,4.48,0,0,0-.42,2.28,11.9,11.9,0,0,1-4.84,9,8.35,8.35,0,0,0,4.64-2.24,3.15,3.15,0,0,1-1.55,3l1.65-.09-4.82,5.63a6.71,6.71,0,0,0,3.75-1.53,14.13,14.13,0,0,1-6,12.84c1.55,1.06,3.56-.4,4.86-1.75a2.57,2.57,0,0,1-.28,2.55l2.28-.73a34.67,34.67,0,0,1-5.55,8.73l4.66-1.16c-.68,2.92-1.6,6.16-4.21,7.63a2.26,2.26,0,0,1,.18,3.75,10.57,10.57,0,0,0-1.37.74c-1,.88-.43,2.48.19,3.65,1-.15,1.89,1.06,1.77,2.12a5.31,5.31,0,0,1-1.55,2.73l-4.77,5.48L93,241a12.85,12.85,0,0,1-3.37,4.68,3.4,3.4,0,0,0,2.9-.24,56.43,56.43,0,0,0-4.08,6A8.34,8.34,0,0,0,93.27,250L92,255.06a22.62,22.62,0,0,1,10.77-2.94c1.73,0,3.59.11,5-.81.65-.41,1.25-1,2-1a2.88,2.88,0,0,1,1.65.91,14.81,14.81,0,0,0,9.66,3.55,22.8,22.8,0,0,1-5.4-6l2.35-.16c.27-1.26-1.19-2.12-2.36-2.64s-2.52-1.7-1.91-2.83l3.24.4-4.91-4.47a5.16,5.16,0,0,0-.43-5.13l4.51,1-5.08-3.61,2-.6a25.79,25.79,0,0,1-6.53-16.1L113,218.4l-4.84-4.26,2.84-.34c.23-.85-.48-1.65-1.21-2.12a5.39,5.39,0,0,1-2-1.59c-.42-.76.07-2,.93-1.88a38.23,38.23,0,0,1-3.3-8.16,9.78,9.78,0,0,1,5.43,1.44l-4.25-3.36,3.49-.67a7.16,7.16,0,0,1-5.1-5.55l2.93-.42a14.26,14.26,0,0,0-3.2-3.42,8.49,8.49,0,0,0,3-.4c-.81-.88-1.62-1.75-2.42-2.63a10.14,10.14,0,0,0,3.34-.25c-.9-1.23-2.56-1.54-3.95-2.18a3.83,3.83,0,0,1-2.23-4A1.24,1.24,0,0,0,100.84,179.06Z"/><path d="M39.94,209.08a4.57,4.57,0,0,1,.43,2.27,11.88,11.88,0,0,0,4.83,9,8.29,8.29,0,0,1-4.63-2.24,3.13,3.13,0,0,0,1.54,3L40.46,221l4.82,5.62a6.6,6.6,0,0,1-3.75-1.53,14.14,14.14,0,0,0,6,12.85c-1.56,1.05-3.56-.4-4.87-1.76a2.59,2.59,0,0,0,.28,2.56L40.63,238a34.12,34.12,0,0,0,5.55,8.73l-4.66-1.16c.68,2.91,1.6,6.16,4.21,7.63a2.26,2.26,0,0,0-.19,3.75,10.57,10.57,0,0,1,1.37.74c1,.87.43,2.48-.19,3.64-1-.15-1.88,1.07-1.76,2.13a5.26,5.26,0,0,0,1.54,2.73c1.6,1.82,3.19,3.65,4.78,5.47l-3.5-.67a12.88,12.88,0,0,0,3.37,4.69,3.4,3.4,0,0,1-2.9-.25,58.1,58.1,0,0,1,4.08,6A8.32,8.32,0,0,1,47.52,280l1.26,5.07A22.62,22.62,0,0,0,38,282.14c-1.73,0-3.59.11-5.06-.81-.64-.41-1.24-1-2-1a2.89,2.89,0,0,0-1.66.92,14.78,14.78,0,0,1-9.65,3.55,23.16,23.16,0,0,0,5.4-6l-2.35-.16c-.27-1.26,1.18-2.12,2.36-2.65s2.51-1.69,1.91-2.83l-3.25.41,4.92-4.47a5.13,5.13,0,0,1,.43-5.13l-4.52,1,5.09-3.61-1.95-.6a25.87,25.87,0,0,0,6.53-16.1l-6.42,3.76,4.85-4.27-2.85-.34c-.23-.84.48-1.64,1.22-2.11a5.38,5.38,0,0,0,2-1.6c.43-.76-.07-2-.93-1.87a38.1,38.1,0,0,0,3.3-8.17A9.81,9.81,0,0,0,30,231.51l4.26-3.36-3.49-.68a7.12,7.12,0,0,0,5.09-5.55l-2.92-.41a14.1,14.1,0,0,1,3.2-3.43,8.24,8.24,0,0,1-3-.39l2.42-2.64a9.88,9.88,0,0,1-3.34-.24c.89-1.24,2.56-1.55,4-2.18a3.83,3.83,0,0,0,2.23-4A1.2,1.2,0,0,1,39.94,209.08Z"/><path d="M687.65,170.77a4.5,4.5,0,0,1,.42,2.28,11.9,11.9,0,0,0,4.84,9,8.27,8.27,0,0,1-4.63-2.23,3.13,3.13,0,0,0,1.54,3l-1.65-.09c1.6,1.88,3.21,3.75,4.82,5.63a6.64,6.64,0,0,1-3.75-1.53,14.11,14.11,0,0,0,6,12.84c-1.55,1.06-3.55-.39-4.86-1.75a2.59,2.59,0,0,0,.28,2.56l-2.28-.73a34.85,34.85,0,0,0,5.55,8.73l-4.66-1.17c.69,2.92,1.61,6.16,4.22,7.63a2.27,2.27,0,0,0-.19,3.76,8.6,8.6,0,0,1,1.37.74c1,.87.43,2.48-.19,3.64-1-.15-1.88,1.07-1.77,2.12a5.31,5.31,0,0,0,1.55,2.73l4.78,5.48-3.51-.67a12.91,12.91,0,0,0,3.38,4.69,3.43,3.43,0,0,1-2.9-.25,59.6,59.6,0,0,1,4.08,6,8.32,8.32,0,0,1-4.81-1.44q.62,2.53,1.25,5.07a22.62,22.62,0,0,0-10.77-2.94c-1.73,0-3.59.12-5.05-.81-.64-.4-1.25-1-2-1a2.89,2.89,0,0,0-1.65.92,14.79,14.79,0,0,1-9.65,3.54,22.78,22.78,0,0,0,5.39-6l-2.34-.16c-.28-1.25,1.18-2.12,2.35-2.64s2.52-1.7,1.91-2.83l-3.24.4,4.91-4.46a5.2,5.2,0,0,1,.43-5.14l-4.51,1,5.08-3.62-1.94-.59a25.88,25.88,0,0,0,6.52-16.1l-6.41,3.76q2.41-2.15,4.85-4.27l-2.85-.34c-.23-.84.48-1.65,1.21-2.12a5.3,5.3,0,0,0,2-1.59c.42-.76-.07-2-.93-1.87a38.31,38.31,0,0,0,3.3-8.17,9.86,9.86,0,0,0-5.43,1.44l4.25-3.35-3.49-.68a7.16,7.16,0,0,0,5.1-5.55l-2.93-.42a14.11,14.11,0,0,1,3.21-3.42,8.43,8.43,0,0,1-3-.39l2.41-2.64a9.9,9.9,0,0,1-3.34-.25c.9-1.23,2.56-1.54,3.95-2.18a3.81,3.81,0,0,0,2.23-4A1.24,1.24,0,0,1,687.65,170.77Z"/><path d="M696.08,170.2a4.61,4.61,0,0,0-.43,2.28,11.86,11.86,0,0,1-4.83,9,8.22,8.22,0,0,0,4.63-2.24,3.14,3.14,0,0,1-1.54,3l1.65-.09c-1.61,1.88-3.22,3.75-4.82,5.63a6.67,6.67,0,0,0,3.75-1.53,14.13,14.13,0,0,1-6,12.84c1.56,1.06,3.56-.4,4.87-1.75a2.57,2.57,0,0,1-.28,2.55l2.27-.73a34.18,34.18,0,0,1-5.55,8.74l4.67-1.17c-.69,2.92-1.61,6.16-4.22,7.63a2.27,2.27,0,0,1,.19,3.76,9.43,9.43,0,0,0-1.37.73c-1,.88-.43,2.48.19,3.65,1.05-.15,1.88,1.07,1.76,2.12a5.22,5.22,0,0,1-1.54,2.73l-4.78,5.48,3.5-.67a12.85,12.85,0,0,1-3.37,4.68,3.39,3.39,0,0,0,2.9-.24,58,58,0,0,0-4.08,6,8.32,8.32,0,0,0,4.81-1.44l-1.26,5.07A22.62,22.62,0,0,1,698,243.26c1.73,0,3.59.12,5.06-.81.64-.4,1.24-1,2-1a2.89,2.89,0,0,1,1.66.92,14.82,14.82,0,0,0,9.65,3.54,23,23,0,0,1-5.4-6l2.35-.16c.27-1.26-1.18-2.12-2.36-2.64s-2.51-1.7-1.91-2.83l3.25.4-4.92-4.46a5.15,5.15,0,0,0-.43-5.14l4.52,1-5.09-3.61,2-.59a26,26,0,0,1-6.53-16.1l6.42,3.75-4.85-4.26,2.85-.34c.23-.84-.48-1.65-1.22-2.12a5.27,5.27,0,0,1-2-1.59c-.43-.76.07-2,.93-1.87a38.52,38.52,0,0,1-3.3-8.17,9.88,9.88,0,0,1,5.43,1.44l-4.26-3.35,3.49-.68a7.15,7.15,0,0,1-5.09-5.55l2.92-.42a13.88,13.88,0,0,0-3.2-3.42,8.25,8.25,0,0,0,3-.4c-.81-.87-1.61-1.75-2.42-2.63a10.12,10.12,0,0,0,3.34-.25c-.89-1.23-2.56-1.54-4-2.18a3.84,3.84,0,0,1-2.23-4A1.22,1.22,0,0,0,696.08,170.2Z"/><path d="M728.77,118a4.61,4.61,0,0,0-.43,2.28,11.86,11.86,0,0,1-4.83,9,8.22,8.22,0,0,0,4.63-2.24,3.14,3.14,0,0,1-1.54,3l1.65-.09c-1.61,1.88-3.22,3.75-4.82,5.63a6.64,6.64,0,0,0,3.75-1.53,14.12,14.12,0,0,1-6,12.84c1.56,1.06,3.56-.39,4.87-1.75a2.59,2.59,0,0,1-.28,2.56l2.28-.73a34.61,34.61,0,0,1-5.56,8.73l4.67-1.17c-.69,2.92-1.61,6.16-4.22,7.63a2.27,2.27,0,0,1,.19,3.76,8.6,8.6,0,0,0-1.37.74c-1,.87-.43,2.48.19,3.64,1-.15,1.88,1.07,1.76,2.12a5.22,5.22,0,0,1-1.54,2.73l-4.78,5.48,3.5-.67a12.88,12.88,0,0,1-3.37,4.69,3.43,3.43,0,0,0,2.9-.25,58,58,0,0,0-4.08,6,8.32,8.32,0,0,0,4.81-1.44L719.93,194A22.62,22.62,0,0,1,730.7,191c1.73,0,3.59.12,5.06-.81.64-.4,1.24-1,2-1a2.89,2.89,0,0,1,1.66.92,14.82,14.82,0,0,0,9.65,3.54,23,23,0,0,1-5.4-6l2.35-.16c.27-1.25-1.18-2.12-2.35-2.64s-2.52-1.7-1.92-2.83l3.25.4L740.09,178a5.17,5.17,0,0,0-.44-5.14l4.52,1-5.09-3.62,1.95-.59a26,26,0,0,1-6.53-16.1l6.42,3.76-4.85-4.27,2.85-.34c.23-.84-.48-1.65-1.22-2.12a5.34,5.34,0,0,1-2-1.59c-.43-.76.07-2,.93-1.87a38.31,38.31,0,0,1-3.3-8.17,9.88,9.88,0,0,1,5.43,1.44l-4.26-3.35,3.49-.68a7.15,7.15,0,0,1-5.09-5.55l2.92-.42a13.88,13.88,0,0,0-3.2-3.42,8.46,8.46,0,0,0,3-.39L733.21,124a10.2,10.2,0,0,0,3.35-.25c-.9-1.23-2.57-1.54-4-2.18a3.84,3.84,0,0,1-2.23-4A1.22,1.22,0,0,0,728.77,118Z"/><path d="M129.83,164.92a6.35,6.35,0,0,0-.58,3.13,16.37,16.37,0,0,1-6.65,12.35,11.45,11.45,0,0,0,6.37-3.08,4.31,4.31,0,0,1-2.12,4.13l2.27-.12-6.63,7.73a9,9,0,0,0,5.15-2.1,19.4,19.4,0,0,1-8.18,17.66c2.14,1.45,4.89-.54,6.69-2.41a3.57,3.57,0,0,1-.39,3.51l3.13-1a47.32,47.32,0,0,1-7.63,12l6.41-1.6c-.94,4-2.2,8.46-5.79,10.48a3.13,3.13,0,0,1,.26,5.17,13.64,13.64,0,0,0-1.89,1c-1.35,1.21-.59,3.41.26,5,1.45-.2,2.59,1.47,2.43,2.92a7.29,7.29,0,0,1-2.13,3.76L114.24,251l4.82-.93a17.62,17.62,0,0,1-4.64,6.45,4.7,4.7,0,0,0,4-.34,80.77,80.77,0,0,0-5.61,8.24,11.44,11.44,0,0,0,6.61-2l-1.72,7a31.13,31.13,0,0,1,14.8-4c2.38,0,4.94.16,6.95-1.11.89-.56,1.71-1.41,2.76-1.38a3.88,3.88,0,0,1,2.27,1.26A20.37,20.37,0,0,0,157.75,269a31.28,31.28,0,0,1-7.42-8.22l3.22-.22c.38-1.73-1.62-2.91-3.23-3.63s-3.46-2.34-2.63-3.89l4.46.55-6.76-6.14a7.09,7.09,0,0,0-.59-7.06l6.21,1.37-7-5,2.67-.82a35.59,35.59,0,0,1-9-22.14l8.82,5.17-6.67-5.87,3.92-.46c.31-1.16-.66-2.27-1.67-2.91s-2.21-1.15-2.8-2.19.1-2.8,1.28-2.58a52.85,52.85,0,0,1-4.54-11.23,13.57,13.57,0,0,1,7.47,2l-5.85-4.62,4.79-.93a9.84,9.84,0,0,1-7-7.63l4-.57a19.52,19.52,0,0,0-4.4-4.71,11.41,11.41,0,0,0,4.18-.54l-3.33-3.63a14,14,0,0,0,4.6-.33c-1.24-1.7-3.53-2.13-5.43-3a5.27,5.27,0,0,1-3.07-5.54A1.68,1.68,0,0,0,129.83,164.92Z"/><path d="M174.78,185.23a6.33,6.33,0,0,0-.58,3.13,16.38,16.38,0,0,1-6.65,12.34,11.42,11.42,0,0,0,6.37-3.08,4.31,4.31,0,0,1-2.12,4.13l2.27-.12-6.63,7.74a9.07,9.07,0,0,0,5.15-2.11,19.42,19.42,0,0,1-8.18,17.66c2.14,1.46,4.89-.54,6.68-2.41a3.56,3.56,0,0,1-.38,3.52l3.13-1a47.32,47.32,0,0,1-7.63,12l6.41-1.6c-.94,4-2.21,8.47-5.8,10.49a3.12,3.12,0,0,1,.26,5.16,13.11,13.11,0,0,0-1.88,1c-1.36,1.2-.59,3.41.26,5,1.44-.21,2.59,1.46,2.43,2.92a7.3,7.3,0,0,1-2.13,3.75l-6.57,7.53,4.82-.92a17.66,17.66,0,0,1-4.64,6.44,4.66,4.66,0,0,0,4-.34,79.18,79.18,0,0,0-5.61,8.24,11.37,11.37,0,0,0,6.61-2l-1.73,7a31.16,31.16,0,0,1,14.81-4c2.38,0,4.94.15,6.95-1.12.89-.56,1.71-1.41,2.76-1.38a4,4,0,0,1,2.27,1.26,20.32,20.32,0,0,0,13.28,4.87,31.49,31.49,0,0,1-7.43-8.22l3.23-.22c.38-1.72-1.62-2.91-3.24-3.63s-3.46-2.33-2.62-3.89l4.45.55-6.75-6.14a7.09,7.09,0,0,0-.59-7l6.21,1.36-7-5,2.68-.82a35.56,35.56,0,0,1-9-22.13l8.82,5.16-6.67-5.86,3.91-.47c.32-1.16-.65-2.27-1.66-2.91s-2.22-1.14-2.8-2.19.09-2.79,1.27-2.58A52.74,52.74,0,0,1,181,214.09a13.48,13.48,0,0,1,7.47,2l-5.85-4.61,4.79-.94a9.82,9.82,0,0,1-7-7.63l4-.57a19.52,19.52,0,0,0-4.4-4.71,11.41,11.41,0,0,0,4.18-.54l-3.33-3.62a14,14,0,0,0,4.6-.34c-1.24-1.7-3.53-2.13-5.43-3a5.25,5.25,0,0,1-3.07-5.54A1.68,1.68,0,0,0,174.78,185.23Z"/></g><g class="cls-2"><path class="cls-3" d="M214.68,220.13a13.06,13.06,0,0,0,0,2.34,10.2,10.2,0,0,0,1.21-1.57A6.73,6.73,0,0,1,214.68,220.13Z"/><path class="cls-3" d="M708.91,105.58a5.49,5.49,0,0,0-3.06.81l2.4-1.89-2-.38a4,4,0,0,0,1.58-.87,6.49,6.49,0,0,1-3-1.39,13.4,13.4,0,0,0,1,6.44,9.35,9.35,0,0,1,2.31-.45A20.91,20.91,0,0,0,708.91,105.58Z"/><path class="cls-3" d="M674.66,128.89A10,10,0,0,1,676,130.7a10.69,10.69,0,0,1,.59-1.73A3.87,3.87,0,0,1,674.66,128.89Z"/><path class="cls-3" d="M709.15,101l-1.64-.23a7.86,7.86,0,0,1,1.8-1.93,4.5,4.5,0,0,1-1.71-.22c.45-.49.9-1,1.36-1.48-.23,0-.47,0-.7,0l.14.11a7.66,7.66,0,0,1-.8-.18,4.67,4.67,0,0,1-.52-.08l0,0a8,8,0,0,1-3.19-1.88A3,3,0,0,0,705.41,98l-1.59-.09,4.34,5.07A3.92,3.92,0,0,0,709.15,101Z"/><path class="cls-3" d="M268.65,222.42a14,14,0,0,1,2.54-.69c0-.28.06-.56.08-.84Z"/><path class="cls-3" d="M674.68,134.93a8,8,0,0,1,1.38,0,8.33,8.33,0,0,1-.22-3.21l-1.44-.17C674.44,132.69,674.55,133.81,674.68,134.93Z"/><path class="cls-3" d="M40.6,138.87v0s0,0,0,0Z"/><path class="cls-3" d="M239,215.23a2.51,2.51,0,0,0,.27,2.47l-2.2-.7a32.9,32.9,0,0,0,2.06,3.89,38.53,38.53,0,0,0,4.31-3.81C242,217.78,240.23,216.47,239,215.23Z"/><path class="cls-3" d="M38.71,153.41l-.18,1.39h.76c.07-.6.13-1.2.16-1.81Z"/><path d="M750.24,71.53c-2.46.56-4.9,1.28-7.28,2L738.17,75a8.79,8.79,0,0,0-4.3,2.27,8.73,8.73,0,0,0-1.54,3.66q-2.25,9.07-4.52,18.16c-6-.83-11.28,6.79-8.38,12.13a53.55,53.55,0,0,0-4.88-2.21,7.78,7.78,0,0,0,1.15,1c-.87.59-2-.22-2.73-1a1.46,1.46,0,0,0,.15,1.44l-1.28-.41A19.42,19.42,0,0,0,715,115l-2.63-.65c.39,1.64.91,3.46,2.37,4.29a1.28,1.28,0,0,0-.1,2.11,6.31,6.31,0,0,1,.77.42c.55.49.24,1.39-.11,2.05-.59-.09-1.06.6-1,1.19a3,3,0,0,0,.87,1.54l2.69,3.08-2-.38a7.2,7.2,0,0,0,1.89,2.64,1.91,1.91,0,0,1-1.63-.14,33.38,33.38,0,0,1,2.3,3.37,4.67,4.67,0,0,1-2.71-.81l.71,2.86a12.68,12.68,0,0,0-5.88-1.64,5.7,5.7,0,0,1-.68,2c-1-.15-1.82,1-1.71,2a5.08,5.08,0,0,0,1.5,2.64l4.61,5.29-3.38-.65a12.38,12.38,0,0,0,3.26,4.54,3.34,3.34,0,0,1-2.81-.24,54.22,54.22,0,0,1,3.95,5.79,8,8,0,0,1-4.65-1.39c.4,1.63.81,3.26,1.21,4.9A21.84,21.84,0,0,0,701.44,157c-1.67,0-3.47.11-4.88-.79-.62-.39-1.2-1-1.94-1a2.83,2.83,0,0,0-1.6.89,14.29,14.29,0,0,1-9.33,3.43,22.3,22.3,0,0,0,5.22-5.78l-2.27-.16c-.26-1.21,1.14-2.05,2.28-2.55s2.43-1.64,1.84-2.74l-3.13.39,4.75-4.31a5,5,0,0,1,.41-5l-4.36.95q2.46-1.74,4.91-3.49l-1.88-.57a25,25,0,0,0,6.31-15.56l-6.2,3.63,4.69-4.13-2.75-.32c-.23-.82.46-1.6,1.17-2a5.09,5.09,0,0,0,2-1.54c.42-.74-.06-2-.89-1.81.12-.22.23-.46.35-.69-4.31.45-8.47,4.44-7.89,8.91-4.21-1.18-8.65,1.27-10.92,4.91a8.73,8.73,0,0,1,1.43,1c-.29,0-1.21.16-2.11.24a10.69,10.69,0,0,0-.59,1.73,9.19,9.19,0,0,1,.59,1.12l-.77-.09a8.33,8.33,0,0,0,.22,3.21,8,8,0,0,0-1.38,0,41.17,41.17,0,0,0,1.25,6.44l-.85.06a4.2,4.2,0,0,0,2.25,4.37c1.79.87,4.38.57,5.33,2.32a12.46,12.46,0,0,1-4.57-.66,6.25,6.25,0,0,1,2.27,2,13.87,13.87,0,0,1-4.53-2.18,6.81,6.81,0,0,0,4.54,8.56,4.24,4.24,0,0,1,1.71.62c.47.38.65,1.22.15,1.57a9,9,0,0,0-3.57-1.12l2.18,3.32a13,13,0,0,1-5.16-5.74l1.17,9.16a3.43,3.43,0,0,0,.42,1.49c1,1.55,4,.93,4.68,2.64a7.57,7.57,0,0,0-4.9-.35l5.46,1.78c.64.21,1.44.78,1.1,1.36s-.91.36-1.39.21l-5.2-1.56a1.14,1.14,0,0,1-1.31.91c-1.76,2.91,1.64,7.34-.68,9.82a27.63,27.63,0,0,1-1.41-10.86,1.24,1.24,0,0,0-.25-1c-.33-.28-.84-.11-1.24.07l-5.67,2.6c.31-1.56,2-2.35,3.38-3.11s2.84-2.23,2.28-3.71a5.55,5.55,0,0,1-2.56-.18,6,6,0,0,1,3.9-1.23,78.87,78.87,0,0,0-.74-9.83,13.57,13.57,0,0,1-5.81.31l5.58-3.49-.8-1.77c-1-2.12-1.74-5,.1-6.44l-3.25.19c-.25-1,1.21-1.56,1.88-2.39a3.75,3.75,0,0,0,.62-1.53c.14-.62.29-1.23.44-1.84-3.77,1.65-6.64,5.57-6.44,9.74.07,1.46.46,2.95.1,4.37-.9,3.49-5.38,4.35-9,4.52a22.76,22.76,0,0,0,1.22,10.54,16.57,16.57,0,0,1-11.5.61c.17,2.64.33,5.29.5,7.93a17.16,17.16,0,0,1-8.16.83,17.78,17.78,0,0,0,.09,7c-2.95-1-6.3-1.67-9.16-.4s-4.68,5.14-2.88,7.71c-6-2.33-13.31,4.07-11.8,10.31-3.71,1.76-7.79-1.17-11.67-2.53s-10,1.35-8.17,5c-5,.25-7.31-7.38-12.29-7.76-3.07-.24-5.66,2.65-6.23,5.67s.35,6.11,1.27,9.05c-6.38-.81-14.49-.74-17.25,5.07a4.48,4.48,0,0,1-3.34,1,.79.79,0,0,1-.27.85,9,9,0,0,0-3.57-1.12l2.19,3.32A12.93,12.93,0,0,1,550,211.7c.38,3.05.77,6.11,1.16,9.16a3.44,3.44,0,0,0,.43,1.49c1,1.55,4,.93,4.67,2.64a7.54,7.54,0,0,0-4.89-.35l5.45,1.78c.64.21,1.44.78,1.1,1.36s-.9.36-1.39.21l-5.2-1.56a1.13,1.13,0,0,1-1.31.91c-1.76,2.91,1.65,7.34-.68,9.82a27.63,27.63,0,0,1-1.41-10.86,1.24,1.24,0,0,0-.25-1c-.33-.28-.84-.11-1.24.07l-5.67,2.6c.31-1.56,2-2.35,3.38-3.11s2.84-2.23,2.28-3.71a5.51,5.51,0,0,1-2.55-.18,6,6,0,0,1,3.9-1.23,83.07,83.07,0,0,0-.65-9.06c-2.85-.63-5.88-.14-6.45,2.5-.28,1.27.2,2.7-.42,3.83-2.21,4-8.27-4.45-12.22-2.12l-3.37,9.1c-3.15,1.26-6.49-1-9.53-2.5s-7.78-1.67-8.81,1.57a10.49,10.49,0,0,0-.27,2.39,9.5,9.5,0,0,1-17.35,4.51c-1.29-1.91-1.95-4.38-3.86-5.67-4.61-3.1-11.11,3.38-16.08.88a6.88,6.88,0,0,1-1.28-.87,13.68,13.68,0,0,0,5.81,10.84c-1.5,1-3.44-.39-4.7-1.7a2.49,2.49,0,0,0,.27,2.47l-2.2-.7a33.73,33.73,0,0,0,5.36,8.44l-4.5-1.13c.66,2.82,1.55,6,4.07,7.38a2.19,2.19,0,0,0-.18,3.63,8.79,8.79,0,0,1,1.32.71c1,.84.42,2.4-.18,3.52-1-.14-1.82,1-1.71,2a5.11,5.11,0,0,0,1.5,2.64L477,267.7l-3.39-.64a12.54,12.54,0,0,0,3.26,4.53,3.31,3.31,0,0,1-2.8-.24,55.65,55.65,0,0,1,3.94,5.79,8,8,0,0,1-4.65-1.39c.41,1.63.81,3.27,1.22,4.9a21.87,21.87,0,0,0-10.41-2.84c-1.68,0-3.47.11-4.89-.78-.62-.4-1.2-1-1.94-1a2.74,2.74,0,0,0-1.59.88,14.33,14.33,0,0,1-9.34,3.43,22.13,22.13,0,0,0,5.22-5.78l-2.27-.16c-.26-1.21,1.14-2,2.28-2.55s2.43-1.64,1.85-2.74l-3.14.39,4.75-4.31a5,5,0,0,1,.42-5l-4.37,1,4.92-3.49-1.88-.58a25,25,0,0,0,6.3-15.56l-6.2,3.63,4.69-4.12-2.75-.33c-.22-.82.46-1.6,1.17-2.05a5.12,5.12,0,0,0,2-1.54c.41-.73-.07-2-.9-1.81a37.48,37.48,0,0,0,3.19-7.89,9.49,9.49,0,0,0-5.25,1.39l4.11-3.24L457.1,225a6.89,6.89,0,0,0,4.37-3.68c-1.87.15-3.81,1-5.69,1.48-2.78.72-6.73-.3-6.73-3.17-4,1.48-4.18,7-6.71,10.4-2.41,3.23-6.71,4.24-10.17,6.3s-6.22,6.9-3.58,9.94c-2.17,2.28-5.89.09-8.26-2s-6.48-3.85-8.19-1.2c-.66,1-.59,2.34-1,3.49-1.21,3.49-5.75,4.05-9.22,5.32s-6.31,6.49-3,8.17c.68,3.78-5.1,6.65-8.66,5.23s-5.22-5.85-4.5-9.61a46.55,46.55,0,0,0-15.07,2.48,9.84,9.84,0,0,1,.43-6A13.66,13.66,0,0,0,359.67,251c.13-2.4.27-4.8.4-7.2-2.6-2.44-6.79-.12-9.33,2.39s-5.93,5.48-9.18,4l-.9-7.18a50.66,50.66,0,0,0-13.29-.86,28,28,0,0,1,.69-9.61,21,21,0,0,0-19,5.78c-.72,2.36-1.59,4.93-3.69,6.22s-5.66.1-5.55-2.36c2.49-1.4-.2-5.41-3.05-5.58s-5.82,1.23-8.46.14c-.9-3-2.37-6.61-5.5-7.1-1.93-.3-3.71.73-5.5,1.67v.15a3,3,0,0,0,.87,1.53l2.69,3.08-2-.38a7.23,7.23,0,0,0,1.9,2.64,1.9,1.9,0,0,1-1.63-.14,33.29,33.29,0,0,1,2.29,3.37,4.54,4.54,0,0,1-2.7-.81c.23,1,.47,1.91.7,2.86A12.75,12.75,0,0,0,273.4,242a5.33,5.33,0,0,1-2.84-.45c-.36-.23-.7-.58-1.13-.57a1.62,1.62,0,0,0-.93.52,8.25,8.25,0,0,1-5.43,2,13,13,0,0,0,3-3.36l-1.33-.09c-.15-.71.67-1.19,1.33-1.49s1.42-1,1.08-1.59l-1.83.23,2.76-2.52a2.89,2.89,0,0,1,.25-2.88l-2.54.55,2.86-2-1.1-.33a14.59,14.59,0,0,0,3.6-8.22,14,14,0,0,0-2.54.69l-1,.58.35-.31a13.62,13.62,0,0,0-3.59,2.29l-1.11-6.29-5.9.37a13.2,13.2,0,0,1,1.57-8.42c-4.26-2-9.28.59-12.75,3.77-.87.79-1.71,1.63-2.55,2.47l.06,0a2.26,2.26,0,0,1-.26.16,38.53,38.53,0,0,1-4.31,3.81,32.61,32.61,0,0,0,3.31,4.55L238,224.31c.66,2.82,1.55,5.95,4.07,7.37a2.19,2.19,0,0,0-.18,3.63,9,9,0,0,1,1.33.72c.95.84.41,2.39-.19,3.52-1-.15-1.82,1-1.7,2a5.13,5.13,0,0,0,1.49,2.64l4.62,5.29-3.39-.64a12.54,12.54,0,0,0,3.26,4.53,3.32,3.32,0,0,1-2.8-.24,55.65,55.65,0,0,1,3.94,5.79,8,8,0,0,1-4.65-1.39c.41,1.63.81,3.26,1.22,4.9a21.87,21.87,0,0,0-10.41-2.84c-1.67,0-3.47.11-4.88-.79-.63-.39-1.21-1-1.94-1a2.8,2.8,0,0,0-1.6.89,14.21,14.21,0,0,1-5.18,2.81l3.12,3.57-3.39-.65A12.54,12.54,0,0,0,224,269a3.24,3.24,0,0,1-2.8-.24,56.74,56.74,0,0,1,3.94,5.79,8,8,0,0,1-4.65-1.39c.41,1.64.81,3.27,1.22,4.9a22,22,0,0,0-10.41-2.84c-1.67,0-3.47.11-4.89-.78-.62-.39-1.2-1-1.94-1a2.75,2.75,0,0,0-1.59.89,14.27,14.27,0,0,1-9.33,3.42,22.11,22.11,0,0,0,5.21-5.78l-2.27-.15c-.26-1.21,1.15-2.05,2.28-2.55s2.43-1.65,1.85-2.74l-3.14.39,4.75-4.32a5,5,0,0,1,.42-5l-4.37,1,4.92-3.49-1.88-.58A25,25,0,0,0,207.6,239l-6.2,3.63,4.68-4.12-2.75-.33c-.22-.81.46-1.59,1.17-2a5.14,5.14,0,0,0,2-1.54c.41-.74-.07-2-.9-1.81a37,37,0,0,0,3.19-7.9,9.52,9.52,0,0,0-5.25,1.4l4.11-3.25-3.37-.65a6.35,6.35,0,0,0,1.67-.72,4.12,4.12,0,0,0-.59-.12c-4-.42-5.76,4.77-6.15,8.73a18.53,18.53,0,0,1-7.13-10.21,11,11,0,0,0-8.88,4.93c-.82,1.27-1.4,2.74-2.56,3.71s-3.23,1.08-4-.25.23-2.73.31-4.15c.17-2.86-3.33-4.79-6.13-4.18s-4.92,2.82-6.86,4.93a9,9,0,0,1-2.33-8.33c-.75-.08-1.5-.13-2.25-.16a1.09,1.09,0,0,1-1,.36c-1.76,2.91,1.65,7.34-.68,9.82a27.87,27.87,0,0,1-1.44-10.13,30.32,30.32,0,0,0-9.16,2.06l-1.47-8.27c-3.95.6-9.65.88-13.59,1.48q1.07-5.73,2.14-11.45c-9.53-2.7-24.17-1.87-24.14,8L99.14,199l-11,13.15a255.73,255.73,0,0,1-21.93-41.32c-4.75-1.56-6.63-8.47-3.33-12.22a64.46,64.46,0,0,0-16-3.58c.65,2.47,1.61,5,3.78,6.19a2.19,2.19,0,0,0-.18,3.63,9.23,9.23,0,0,1,1.32.71c1,.85.42,2.4-.18,3.52-1-.14-1.82,1-1.7,2.06a5.1,5.1,0,0,0,1.49,2.64L56,179.1l-3.39-.65A12.54,12.54,0,0,0,55.82,183a3.24,3.24,0,0,1-2.8-.24A56.74,56.74,0,0,1,57,188.53a8,8,0,0,1-4.65-1.39c.41,1.64.81,3.27,1.22,4.9a22,22,0,0,0-10.41-2.84c-1.67,0-3.47.11-4.89-.78-.62-.39-1.2-1-1.94-1a2.75,2.75,0,0,0-1.59.89,14.32,14.32,0,0,1-9.34,3.42A22,22,0,0,0,30.58,186l-2.27-.15c-.26-1.22,1.15-2.05,2.28-2.56s2.43-1.64,1.85-2.73l-3.14.39,4.75-4.32a5,5,0,0,1,.42-5l-4.37,1L35,169.12l-1.88-.58a25,25,0,0,0,6.15-13.75h-.76l.18-1.39-5.46,3.2,4.68-4.12-2.75-.33c-.22-.81.46-1.59,1.17-2a5.22,5.22,0,0,0,2-1.54c.41-.74-.07-2-.9-1.81a37.88,37.88,0,0,0,3.18-7.85v0a9.58,9.58,0,0,0-5.24,1.4L39.47,137l-3.37-.65a6.84,6.84,0,0,0,3.23-2c-6.57-1.19-11.28-9.47-8.2-15.6C22.54,119.66,15.8,108,20.87,101,14,103.92,5,98.7,4.2,91.27L.24,92V299.68h750Z"/><path d="M704,114.35c.23.5.48,1,.73,1.48l1-.92Z"/><path d="M705.91,112.58l0,0,0,0Z"/><path d="M705.18,123c0,.13.08.26.11.4l.36-.26Z"/><path d="M704.83,121.66c.06.22.11.44.16.66.14-.17.28-.34.41-.52Z"/><path d="M707.05,110.17a20.39,20.39,0,0,0,1.09-2.32,9.35,9.35,0,0,0-2.31.45,14.21,14.21,0,0,0,1.69,3l.06-.07C707.82,110.8,707.54,110.08,707.05,110.17Z"/><path d="M706.84,113.44l-1.09-.13a.54.54,0,0,1,0-.18,2.51,2.51,0,0,0,.23,1.57l1.17-1Z"/><path d="M215.87,220.9a10.2,10.2,0,0,1-1.21,1.57,13.73,13.73,0,0,0,5.77,10.07c-1.5,1-3.44-.38-4.7-1.69a2.49,2.49,0,0,0,.27,2.47l-2.2-.71a33.31,33.31,0,0,0,5.37,8.44l-4.51-1.12c.66,2.81,1.55,5.95,4.07,7.37a2.19,2.19,0,0,0-.18,3.63,9.23,9.23,0,0,1,1.32.71c1,.85.42,2.4-.18,3.52-1-.14-1.82,1-1.7,2.06a5,5,0,0,0,1.44,2.58,22,22,0,0,0,2.62-3.38l-2.27-.16c-.27-1.21,1.14-2,2.27-2.55s2.43-1.64,1.85-2.74l-3.13.39,4.74-4.31a5,5,0,0,1,.42-5l-4.37.95,4.92-3.49L224.6,239a25.05,25.05,0,0,0,6.31-15.56l-6.2,3.63,4.68-4.13-2.75-.32a1.61,1.61,0,0,1,.48-1.47,4.89,4.89,0,0,1-1.75-4.66c-.39-3.26-5.7-1.94-7.41.85-.45.73-.88,1.54-1.33,2.33l1.67,2A6.49,6.49,0,0,1,215.87,220.9Z"/><path d="M707.74,114.08l-1.59.93,0,0-.07,0-1.4.82a32.47,32.47,0,0,0,2.1,3.6,14.59,14.59,0,0,0,1.38-5.14Z"/><path d="M235.14,223a14.12,14.12,0,0,0,4-2.07,32.9,32.9,0,0,1-2.06-3.89l2.2.7a2.51,2.51,0,0,1-.27-2.47c1.19,1.24,3,2.55,4.44,1.85l.2-.2A13.66,13.66,0,0,1,238,204.51a6.37,6.37,0,0,0,3.62,1.48c-1.55-1.81-3.1-3.63-4.66-5.44l1.6.09a3,3,0,0,1-1.49-2.91,8.06,8.06,0,0,0,4.47,2.17,11.52,11.52,0,0,1-4.67-8.68,4.31,4.31,0,0,0-.41-2.2,1.18,1.18,0,0,0-1.55-.46,3.69,3.69,0,0,1-2.16,3.89c-1.34.62-3,.92-3.82,2.11a9.77,9.77,0,0,0,3.23.24l-2.33,2.55a8.32,8.32,0,0,0,2.94.38,13.56,13.56,0,0,0-3.1,3.31l2.83.4a6.91,6.91,0,0,1-4.93,5.36l3.38.66-4.12,3.24a9.54,9.54,0,0,1,5.25-1.39,36.92,36.92,0,0,1-3.18,7.89c.82-.15,1.3,1.07.89,1.81a5.09,5.09,0,0,1-2,1.54,3.54,3.54,0,0,0-.7.58A8.73,8.73,0,0,0,235.14,223Z"/><path d="M243.74,216.92l-.06,0-.2.2A2.26,2.26,0,0,0,243.74,216.92Z"/><path d="M226.64,222.6l2.75.32-4.68,4.13,6.2-3.63A25.05,25.05,0,0,1,224.6,239l1.88.57L221.56,243l4.37-.95a5,5,0,0,0-.42,5l-4.74,4.31,3.13-.39c.58,1.1-.71,2.23-1.85,2.74s-2.54,1.34-2.27,2.55l2.27.16a22,22,0,0,1-2.62,3.38l0,.06,1.5,1.72a14.21,14.21,0,0,0,5.18-2.81,2.8,2.8,0,0,1,1.6-.89c.73,0,1.31.58,1.94,1,1.41.9,3.21.76,4.88.79A21.87,21.87,0,0,1,245,262.48c-.41-1.64-.81-3.27-1.22-4.9a8,8,0,0,0,4.65,1.39,55.65,55.65,0,0,0-3.94-5.79,3.32,3.32,0,0,0,2.8.24,12.54,12.54,0,0,1-3.26-4.53l3.39.64-4.62-5.29a5.13,5.13,0,0,1-1.49-2.64c-.12-1,.69-2.2,1.7-2,.6-1.13,1.14-2.68.19-3.52a9,9,0,0,0-1.33-.72,2.19,2.19,0,0,1,.18-3.63c-2.52-1.42-3.41-4.55-4.07-7.37l4.51,1.13a32.61,32.61,0,0,1-3.31-4.55,14.12,14.12,0,0,1-4,2.07,8.73,8.73,0,0,1-8-1.83A1.61,1.61,0,0,0,226.64,222.6Z"/><path d="M708.26,97.14a4.93,4.93,0,0,1-.66-.07,7.66,7.66,0,0,0,.8.18Z"/><path d="M700.25,114.69c.1-3,2.62-5.43,5.58-6.39a13.4,13.4,0,0,1-1-6.44,6.49,6.49,0,0,0,3,1.39,3.83,3.83,0,0,0,.29-.28l-4.34-5.07,1.59.09a3,3,0,0,1-1.49-2.91A8,8,0,0,0,707.11,97a2.08,2.08,0,0,1,.43-.41,11.59,11.59,0,0,1-3.82-8,4.41,4.41,0,0,0-.4-2.2,1.19,1.19,0,0,0-1.56-.46,3.69,3.69,0,0,1-2.15,3.89c-1.34.62-3,.92-3.82,2.11a9.75,9.75,0,0,0,3.23.24l-2.34,2.55a8.38,8.38,0,0,0,2.94.38,13.33,13.33,0,0,0-3.09,3.31l2.82.4a6.9,6.9,0,0,1-4.92,5.36l3.37.66-4.11,3.24a9.49,9.49,0,0,1,5.25-1.39,37.18,37.18,0,0,1-2.84,7.2A6.82,6.82,0,0,1,700.25,114.69Z"/><path d="M706.18,115.05l0,0,0,0Z"/><path d="M707.74,114.08l.45.23c0-.17,0-.35,0-.52Z"/><path d="M696.64,116.36a5.09,5.09,0,0,1-2,1.54c-.71.45-1.4,1.23-1.17,2l2.75.32-4.69,4.13,6.2-3.63a25,25,0,0,1-6.31,15.56l1.88.57q-2.45,1.75-4.91,3.49l4.36-.95a5,5,0,0,0-.41,5l-4.75,4.31,3.13-.39c.59,1.1-.71,2.23-1.84,2.74s-2.54,1.34-2.28,2.55l2.27.16a22.3,22.3,0,0,1-5.22,5.78,14.29,14.29,0,0,0,9.33-3.43,2.83,2.83,0,0,1,1.6-.89c.74,0,1.32.58,1.94,1,1.41.9,3.21.76,4.88.79a21.84,21.84,0,0,1,10.41,2.84c-.4-1.64-.81-3.27-1.21-4.9a8,8,0,0,0,4.65,1.39,54.22,54.22,0,0,0-3.95-5.79,3.34,3.34,0,0,0,2.81.24,12.38,12.38,0,0,1-3.26-4.54l3.38.65-4.61-5.29a5.08,5.08,0,0,1-1.5-2.64c-.11-1,.69-2.2,1.71-2a5.7,5.7,0,0,0,.68-2l-.18,0a5.33,5.33,0,0,1-2.84-.45c-.37-.23-.7-.58-1.13-.57a1.59,1.59,0,0,0-.93.52,8.32,8.32,0,0,1-5.43,2,12.78,12.78,0,0,0,3-3.36l-1.32-.09c-.15-.71.67-1.19,1.33-1.49s1.41-.95,1.07-1.59l-1.82.23,2.76-2.52a2.91,2.91,0,0,1,.24-2.88l-2.54.55,2.5-1.77c0-.14-.07-.27-.11-.4l-.62-.19c.15-.17.29-.36.43-.53,0-.22-.1-.44-.16-.66l.57.14a14.34,14.34,0,0,0,1.41-2.35,32.47,32.47,0,0,1-2.1-3.6l-.09.05.08-.07c-.25-.49-.5-1-.73-1.48l1.78.56.23-.21a2.51,2.51,0,0,1-.23-1.57.88.88,0,0,1,.14-.5l0,0v0a1.93,1.93,0,0,1,.51-.48,3.36,3.36,0,0,0,1.09-.83,14.21,14.21,0,0,1-1.69-3c-3,1-5.48,3.34-5.58,6.39a6.82,6.82,0,0,0-4.15-.83c-.12.23-.23.47-.35.69C696.58,114.4,697.06,115.62,696.64,116.36Z"/><path d="M706.84,113.44l.31.24.2-.18Z"/><path d="M464.14,221.68a15.19,15.19,0,0,1,3.33,2.58,12,12,0,0,1,.06-1.58,6.37,6.37,0,0,0,3.62,1.48c-1.55-1.81-3.11-3.62-4.66-5.44l1.6.09a3.05,3.05,0,0,1-1.5-2.91,8,8,0,0,0,4.48,2.17,11.52,11.52,0,0,1-4.67-8.68,4.53,4.53,0,0,0-.41-2.2,1.19,1.19,0,0,0-1.55-.46,3.69,3.69,0,0,1-2.16,3.89c-1.34.62-2.95.92-3.82,2.11a9.75,9.75,0,0,0,3.23.24l-2.34,2.55a7.94,7.94,0,0,0,2.94.38,13.71,13.71,0,0,0-3.09,3.31l2.83.4a6.51,6.51,0,0,1-.56,1.68A5.45,5.45,0,0,1,464.14,221.68Z"/><path d="M457.1,225l3.37.66-4.11,3.24a9.49,9.49,0,0,1,5.25-1.39,37.48,37.48,0,0,1-3.19,7.89c.83-.15,1.31,1.08.9,1.81a5.12,5.12,0,0,1-2,1.54c-.71.45-1.39,1.23-1.17,2.05l2.75.33-4.69,4.12,6.2-3.63a25,25,0,0,1-6.3,15.56l1.88.58-4.92,3.49,4.37-1a5,5,0,0,0-.42,5l-4.75,4.31,3.14-.39c.58,1.1-.72,2.24-1.85,2.74s-2.54,1.34-2.28,2.55l2.27.16a22.13,22.13,0,0,1-5.22,5.78,14.33,14.33,0,0,0,9.34-3.43,2.74,2.74,0,0,1,1.59-.88c.74,0,1.32.57,1.94,1,1.42.89,3.21.75,4.89.78a21.87,21.87,0,0,1,10.41,2.84c-.41-1.63-.81-3.27-1.22-4.9a8,8,0,0,0,4.65,1.39,55.65,55.65,0,0,0-3.94-5.79,3.31,3.31,0,0,0,2.8.24,12.54,12.54,0,0,1-3.26-4.53l3.39.64-4.62-5.29a5.11,5.11,0,0,1-1.5-2.64c-.11-1,.69-2.19,1.71-2,.6-1.12,1.14-2.68.18-3.52a8.79,8.79,0,0,0-1.32-.71,2.19,2.19,0,0,1,.18-3.63c-2.52-1.42-3.41-4.56-4.07-7.38l4.5,1.13a33.73,33.73,0,0,1-5.36-8.44l2.2.7a2.49,2.49,0,0,1-.27-2.47c1.26,1.31,3.2,2.72,4.7,1.7a13.68,13.68,0,0,1-5.81-10.84,15.19,15.19,0,0,0-3.33-2.58,5.45,5.45,0,0,0-2.67-.39A6.89,6.89,0,0,1,457.1,225Z"/><path d="M40.6,138.87h0s0,0,0,0l-1.89,14.49.74-.43c0,.61-.09,1.21-.16,1.81a64.85,64.85,0,0,1,7.51.27c-.1-.4-.2-.79-.29-1.18L51,155a33.31,33.31,0,0,1-5.37-8.44l2.2.71a2.49,2.49,0,0,1-.27-2.47c1.26,1.31,3.2,2.71,4.7,1.69a13.64,13.64,0,0,1-5.75-12.41,6.43,6.43,0,0,0,3.62,1.48c-1.55-1.82-3.11-3.63-4.66-5.44l1.6.08a3,3,0,0,1-1.5-2.9,8,8,0,0,0,4.48,2.16,11.5,11.5,0,0,1-4.67-8.67,4.51,4.51,0,0,0-.41-2.2,1.18,1.18,0,0,0-1.55-.47,3.71,3.71,0,0,1-2.16,3.9c-1.34.61-3,.91-3.82,2.11a9.5,9.5,0,0,0,3.23.23l-2.33,2.55a7.86,7.86,0,0,0,2.93.38,13.9,13.9,0,0,0-3.09,3.31L41,131a6.79,6.79,0,0,1-1.7,3.39,8.63,8.63,0,0,0,1.84.16Z"/><path d="M39.29,154.79a25,25,0,0,1-6.15,13.75l1.88.58-4.92,3.49,4.37-1a5,5,0,0,0-.42,5l-4.75,4.32,3.14-.39c.58,1.09-.72,2.23-1.85,2.73s-2.54,1.34-2.28,2.56l2.27.15a22,22,0,0,1-5.22,5.78,14.32,14.32,0,0,0,9.34-3.42,2.75,2.75,0,0,1,1.59-.89c.74,0,1.32.58,1.94,1,1.42.89,3.22.76,4.89.78A22,22,0,0,1,53.53,192c-.41-1.63-.81-3.26-1.22-4.9A8,8,0,0,0,57,188.53,56.74,56.74,0,0,0,53,182.74a3.24,3.24,0,0,0,2.8.24,12.54,12.54,0,0,1-3.26-4.53l3.39.65-4.62-5.29a5.1,5.1,0,0,1-1.49-2.64c-.12-1,.68-2.2,1.7-2.06.6-1.12,1.14-2.67.18-3.52a9.23,9.23,0,0,0-1.32-.71,2.19,2.19,0,0,1,.18-3.63c-2.17-1.22-3.13-3.72-3.78-6.19A64.85,64.85,0,0,0,39.29,154.79Z"/><path d="M39.47,137l-4.11,3.25a9.58,9.58,0,0,1,5.24-1.4l.57-4.32a8.63,8.63,0,0,1-1.84-.16,6.84,6.84,0,0,1-3.23,2Z"/><path d="M37.42,146.77c.83-.16,1.31,1.07.9,1.81a5.22,5.22,0,0,1-2,1.54c-.71.45-1.39,1.23-1.17,2l2.75.33-4.68,4.12,5.46-3.2,1.89-14.49A37.88,37.88,0,0,1,37.42,146.77Z"/><path d="M214.66,222.47a13.06,13.06,0,0,1,0-2.34,6.73,6.73,0,0,0,1.19.77c.26-.4.51-.82.76-1.25l-3-3.48,1.6.08a3,3,0,0,1-1.5-2.9,8,8,0,0,0,4.48,2.16,11.5,11.5,0,0,1-4.67-8.67,4.4,4.4,0,0,0-.41-2.2,1.17,1.17,0,0,0-1.55-.46,3.7,3.7,0,0,1-2.16,3.89c-1.34.61-3,.92-3.82,2.11a9.5,9.5,0,0,0,3.23.23L206.51,213a7.86,7.86,0,0,0,2.93.38,13.9,13.9,0,0,0-3.09,3.31l2.83.4a6.93,6.93,0,0,1-3.26,4.65c1.92.5,3.52,2.21,5.52,2.27A4.13,4.13,0,0,0,214.66,222.47Z"/><path d="M207.62,223.07l-4.11,3.25a9.52,9.52,0,0,1,5.25-1.4,37,37,0,0,1-3.19,7.9c.83-.16,1.31,1.07.9,1.81a5.14,5.14,0,0,1-2,1.54c-.71.45-1.39,1.23-1.17,2l2.75.33-4.68,4.12,6.2-3.63a25,25,0,0,1-6.31,15.56l1.88.58-4.92,3.49,4.37-1a5,5,0,0,0-.42,5L197.45,267l3.14-.39c.58,1.09-.71,2.23-1.85,2.74s-2.54,1.34-2.28,2.55l2.27.15a22.11,22.11,0,0,1-5.21,5.78,14.27,14.27,0,0,0,9.33-3.42,2.75,2.75,0,0,1,1.59-.89c.74,0,1.32.58,1.94,1,1.42.89,3.22.76,4.89.78a22,22,0,0,1,10.41,2.84c-.41-1.63-.81-3.26-1.22-4.9a8,8,0,0,0,4.65,1.39,56.74,56.74,0,0,0-3.94-5.79,3.24,3.24,0,0,0,2.8.24,12.54,12.54,0,0,1-3.26-4.53l3.39.65L221,261.58a13.91,13.91,0,0,1-4.15.62,22.75,22.75,0,0,0,2.6-2.4,5,5,0,0,1-1.44-2.58c-.12-1,.69-2.2,1.7-2.06.6-1.12,1.14-2.67.18-3.52a9.23,9.23,0,0,0-1.32-.71,2.19,2.19,0,0,1,.18-3.63c-2.52-1.42-3.41-4.56-4.07-7.37l4.51,1.12a33.31,33.31,0,0,1-5.37-8.44l2.2.71a2.49,2.49,0,0,1-.27-2.47c1.26,1.31,3.2,2.71,4.7,1.69a13.73,13.73,0,0,1-5.77-10.07,4.13,4.13,0,0,1-3.22,1.5c-2-.06-3.6-1.77-5.52-2.27a6.35,6.35,0,0,1-1.67.72Z"/><path d="M218.3,221.61l-1.67-2c-.25.43-.5.85-.76,1.25A6.49,6.49,0,0,0,218.3,221.61Z"/><path d="M219.43,259.8a22.75,22.75,0,0,1-2.6,2.4,13.91,13.91,0,0,0,4.15-.62l-1.5-1.72Z"/><path d="M271.27,220.89c0,.28,0,.56-.08.84a12.71,12.71,0,0,1,2-.21c1.94,2.68-3.93,5.34-3.46,8.63.35,2.45,3.86,2.86,6.13,1.87.48-.2.95-.45,1.42-.69,0-.56.45-1.13,1-1.05.35-.65.66-1.56.1-2.05a5.14,5.14,0,0,0-.77-.41,1.28,1.28,0,0,1,.11-2.12c-1.47-.82-2-2.65-2.37-4.29l2.62.65a19.11,19.11,0,0,1-3.12-4.91l1.28.41a1.43,1.43,0,0,1-.16-1.44c.73.77,1.86,1.59,2.74,1a7.94,7.94,0,0,1-3.35-7.23,3.74,3.74,0,0,0,2.11.87c-.91-1.06-1.81-2.12-2.72-3.17l.93,0a1.78,1.78,0,0,1-.87-1.69,4.72,4.72,0,0,0,2.61,1.26,6.72,6.72,0,0,1-2.72-5,2.51,2.51,0,0,0-.24-1.28.67.67,0,0,0-.9-.27,2.17,2.17,0,0,1-1.26,2.27c-.78.35-1.71.53-2.22,1.22a5.66,5.66,0,0,0,1.88.14c-.45.5-.91,1-1.36,1.48a4.72,4.72,0,0,0,1.71.23,8,8,0,0,0-1.8,1.92l1.65.24a4,4,0,0,1-2.87,3.12l2,.38-2.39,1.89a5.46,5.46,0,0,1,3.05-.81,21.73,21.73,0,0,1-1.85,4.59c.48-.09.76.63.52,1a3,3,0,0,1-1.14.9c-.42.26-.82.72-.69,1.19l1.6.19L268,222.69c.21-.09.42-.19.64-.27Z"/><path d="M269.76,230.15c-.47-3.29,5.4-6,3.46-8.63a12.71,12.71,0,0,0-2,.21,14.59,14.59,0,0,1-3.6,8.22l1.1.33-2.86,2,2.54-.55a2.89,2.89,0,0,0-.25,2.88l-2.76,2.52,1.83-.23c.34.64-.42,1.3-1.08,1.59s-1.48.78-1.33,1.49l1.33.09a13,13,0,0,1-3,3.36,8.25,8.25,0,0,0,5.43-2,1.62,1.62,0,0,1,.93-.52c.43,0,.77.34,1.13.57a5.33,5.33,0,0,0,2.84.45,12.75,12.75,0,0,1,6.06,1.66c-.23-.95-.47-1.9-.7-2.86a4.54,4.54,0,0,0,2.7.81,33.29,33.29,0,0,0-2.29-3.37,1.9,1.9,0,0,0,1.63.14,7.23,7.23,0,0,1-1.9-2.64l2,.38L278.18,233a3,3,0,0,1-.87-1.53v-.15c-.47.24-.94.49-1.42.69C273.62,233,270.11,232.6,269.76,230.15Z"/><path d="M268.65,222.42c-.22.08-.43.18-.64.27l-.35.31Z"/><path d="M709,97.13c-.46.49-.91,1-1.36,1.48a4.5,4.5,0,0,0,1.71.22,7.86,7.86,0,0,0-1.8,1.93l1.64.23a3.92,3.92,0,0,1-1,2l.32.37c-.21,0-.41-.06-.61-.09a4,4,0,0,1-1.58.87l2,.38-2.4,1.89a5.49,5.49,0,0,1,3.06-.81,20.91,20.91,0,0,1-.77,2.27l.23,0a15.91,15.91,0,0,1,6.18,1.18,8,8,0,0,1-2.2-6.23,3.66,3.66,0,0,0,2.11.86c-.9-1-1.8-2.11-2.71-3.16l.93,0a1.79,1.79,0,0,1-.87-1.69,4.68,4.68,0,0,0,2.61,1.26,6.69,6.69,0,0,1-2.72-5,2.62,2.62,0,0,0-.24-1.28.67.67,0,0,0-.9-.27,2.15,2.15,0,0,1-1.26,2.26,12.73,12.73,0,0,0-1.76.79c.23.21.47.4.72.59C708.49,97.14,708.73,97.15,709,97.13Z"/><path d="M707.6,97.07a4.31,4.31,0,0,1-.49-.11l0,0A4.67,4.67,0,0,0,707.6,97.07Z"/><path d="M706.84,113.44c-.33-.27-.64-.56-.92-.84l0,0a2.19,2.19,0,0,0-.14.5.54.54,0,0,0,0,.18Z"/><path d="M707.74,114.08c-.2-.12-.4-.26-.59-.4l-1.17,1a3.07,3.07,0,0,0,.17.31Z"/><path d="M708.14,107.85a20.39,20.39,0,0,1-1.09,2.32c.49-.09.77.63.53,1l-.06.07a13.05,13.05,0,0,0,3.09,3,2.36,2.36,0,0,1-2.42,0,14.59,14.59,0,0,1-1.38,5.14,34.06,34.06,0,0,0,2.53,3.34l-3.94-1c-.13.18-.27.35-.41.52.06.24.13.48.19.72l.47.14-.36.26c.65,2.27,1.62,4.47,3.62,5.59a2.2,2.2,0,0,0-.19,3.63,9,9,0,0,1,1.33.72,1.7,1.7,0,0,1,.5,1.51,12.68,12.68,0,0,1,5.88,1.64l-.71-2.86a4.67,4.67,0,0,0,2.71.81,33.38,33.38,0,0,0-2.3-3.37,1.91,1.91,0,0,0,1.63.14,7.2,7.2,0,0,1-1.89-2.64l2,.38-2.69-3.08a3,3,0,0,1-.87-1.54c-.07-.59.4-1.28,1-1.19.35-.66.66-1.56.11-2.05a6.31,6.31,0,0,0-.77-.42,1.28,1.28,0,0,1,.1-2.11c-1.46-.83-2-2.65-2.37-4.29L715,115a19.42,19.42,0,0,1-3.13-4.91l1.28.41A1.46,1.46,0,0,1,713,109c.73.77,1.86,1.58,2.73,1a7.78,7.78,0,0,1-1.15-1,15.91,15.91,0,0,0-6.18-1.18Z"/><path d="M705.75,114.91l-1,.92v0l1.4-.82Z"/><path d="M708.16,103a3.83,3.83,0,0,1-.29.28c.2,0,.4.07.61.09Z"/><path d="M707.6,97.07a4.93,4.93,0,0,0,.66.07c-.25-.19-.49-.38-.72-.59a2.08,2.08,0,0,0-.43.41A4.31,4.31,0,0,0,707.6,97.07Z"/><path d="M704.62,115.9l.09-.05v0Z"/><path d="M705.75,113.13a2.19,2.19,0,0,1,.14-.5A.88.88,0,0,0,705.75,113.13Z"/><path d="M704.56,122.85l.62.19c-.06-.24-.13-.48-.19-.72C704.85,122.49,704.71,122.68,704.56,122.85Z"/><path d="M710.05,133.38a9,9,0,0,0-1.33-.72,2.2,2.2,0,0,1,.19-3.63c-2-1.12-3-3.32-3.62-5.59l-2.5,1.77,2.54-.55a2.91,2.91,0,0,0-.24,2.88l-2.76,2.52,1.82-.23c.34.64-.41,1.3-1.07,1.59s-1.48.78-1.33,1.49l1.32.09a12.78,12.78,0,0,1-3,3.36,8.32,8.32,0,0,0,5.43-2,1.59,1.59,0,0,1,.93-.52c.43,0,.76.34,1.13.57a5.33,5.33,0,0,0,2.84.45l.18,0A1.7,1.7,0,0,0,710.05,133.38Z"/><path d="M706.81,119.45a14.34,14.34,0,0,1-1.41,2.35l3.94,1A34.06,34.06,0,0,1,706.81,119.45Z"/><path d="M706.84,113.44l.51.06-.2.18c.19.14.39.28.59.4l.49-.29c0,.17,0,.35,0,.52a2.36,2.36,0,0,0,2.42,0,13.05,13.05,0,0,1-3.09-3,3.36,3.36,0,0,1-1.09.83,1.93,1.93,0,0,0-.51.48C706.2,112.88,706.51,113.17,706.84,113.44Z"/><path d="M706.15,115a3.07,3.07,0,0,1-.17-.31l-.23.21.36.12Z"/><path d="M556.79,214.39a1.18,1.18,0,0,0-.42-.72,4.24,4.24,0,0,0-1.71-.62,6.81,6.81,0,0,1-4.54-8.56,13.87,13.87,0,0,0,4.53,2.18,6.3,6.3,0,0,0-2.26-2,12.4,12.4,0,0,0,4.56.66c-1-1.75-3.53-1.45-5.33-2.32a4.2,4.2,0,0,1-2.25-4.37l.85-.06a42.31,42.31,0,0,1-1.53-9.81l2.21.26a9.94,9.94,0,0,0-1.95-2.93c.37.38,3.49-.11,4.06-.16-1.08-1-2.48-1.4-3.33-2.68-.46-.69-.43-2.44-1-2.92-2-1.6-3,3.22-4.38,4.26h2.3a4.85,4.85,0,0,1-1.12,1.77l1.48.33-2.34,3.25,1.89.06c-.39,1.59-.77,3.17-1.15,4.76a3.75,3.75,0,0,1-.62,1.53c-.67.83-2.13,1.35-1.88,2.39l3.25-.19c-1.84,1.42-1.05,4.32-.1,6.44.27.59.54,1.18.8,1.77l-5.57,3.49a13.53,13.53,0,0,0,5.8-.31c0,.25.06.51.1.77A10.69,10.69,0,0,1,550,211.7C552.06,212.86,554.54,214.23,556.79,214.39Z"/><path d="M555.14,217.44,553,214.12a9,9,0,0,1,3.57,1.12.79.79,0,0,0,.27-.85c-2.25-.16-4.73-1.53-6.81-2.69A12.93,12.93,0,0,0,555.14,217.44Z"/><path d="M543.86,220.93a5.51,5.51,0,0,0,2.55.18c.56,1.48-.89,2.94-2.28,3.71s-3.07,1.55-3.38,3.11l5.67-2.6c.4-.18.91-.35,1.24-.07a1.24,1.24,0,0,1,.25,1,27.63,27.63,0,0,0,1.41,10.86c2.33-2.48-1.08-6.91.68-9.82a1.13,1.13,0,0,0,1.31-.91l5.2,1.56c.49.15,1.14.24,1.39-.21s-.46-1.15-1.1-1.36l-5.45-1.78a7.54,7.54,0,0,1,4.89.35c-.69-1.71-3.65-1.09-4.67-2.64a3.44,3.44,0,0,1-.43-1.49c-.39-3.05-.78-6.11-1.16-9.16a10.69,10.69,0,0,0-2.87-1.06,83.07,83.07,0,0,1,.65,9.06A6,6,0,0,0,543.86,220.93Z"/><path d="M159.39,216.6a1,1,0,0,0,.3-.55l5.2,1.56c.49.15,1.14.23,1.4-.21s-.47-1.15-1.11-1.36l-5.45-1.78a7.54,7.54,0,0,1,4.89.35c-.69-1.72-3.65-1.09-4.67-2.64a3.48,3.48,0,0,1-.43-1.49c-.39-3-.77-6.11-1.16-9.16a12.93,12.93,0,0,0,5.16,5.74l-2.19-3.32a8.83,8.83,0,0,1,3.57,1.12c.5-.35.33-1.19-.15-1.58a4.38,4.38,0,0,0-1.71-.61,6.81,6.81,0,0,1-4.54-8.56,13.94,13.94,0,0,0,4.53,2.17,6.27,6.27,0,0,0-2.26-2,12.4,12.4,0,0,0,4.56.66c-1-1.75-3.53-1.45-5.33-2.32a4.2,4.2,0,0,1-2.25-4.37l.85-.06a42.38,42.38,0,0,1-1.52-9.82l2.2.26a9.89,9.89,0,0,0-1.95-2.92c.37.38,3.49-.11,4.06-.17-1.08-1-2.47-1.39-3.33-2.68-.46-.68-.43-2.44-1-2.92-2-1.59-3,3.23-4.38,4.27H155a4.85,4.85,0,0,1-1.12,1.77l1.48.33L153,179.54l1.89.07c-.38,1.58-.77,3.17-1.15,4.75a3.75,3.75,0,0,1-.62,1.53c-.67.84-2.13,1.36-1.88,2.4l3.25-.19c-1.84,1.42-1.05,4.32-.1,6.43l.81,1.78-5.58,3.48a13.36,13.36,0,0,0,5.8-.3,80.69,80.69,0,0,1,.75,9.83,6,6,0,0,0-3.9,1.22,5.51,5.51,0,0,0,2.55.19c.57,1.48-.89,2.94-2.28,3.71s-3.07,1.55-3.38,3.11l5.67-2.6c.4-.19.91-.36,1.25-.07a1.19,1.19,0,0,1,.24,1c0,.25,0,.49,0,.74C157.3,216.58,158.35,216.57,159.39,216.6Z"/><path d="M157.7,226.78c2.33-2.48-1.08-6.91.68-9.82a1.09,1.09,0,0,0,1-.36c-1,0-2.09,0-3.13.05A27.87,27.87,0,0,0,157.7,226.78Z"/><path d="M674.4,131.56l1.44.17a8.87,8.87,0,0,1,.18-1,10,10,0,0,0-1.36-1.81,3.87,3.87,0,0,0,2,.08,11.37,11.37,0,0,1,.68-1.29,5.68,5.68,0,0,1-1.9-1.63c-.46-.69-.43-2.44-1-2.92-2-1.6-3,3.22-4.38,4.26h2.3a4.82,4.82,0,0,1-1.11,1.77l1.48.33-2.34,3.25,1.88.06c-.23,1-.46,1.95-.7,2.92a9.6,9.6,0,0,1,3.2-.8C674.55,133.81,674.44,132.69,674.4,131.56Z"/><path d="M670.42,139.1c-.67.83-2.13,1.35-1.88,2.39l3.25-.19c-1.84,1.42-1.06,4.32-.1,6.44l.8,1.77L666.91,153a13.57,13.57,0,0,0,5.81-.31,78.87,78.87,0,0,1,.74,9.83,6,6,0,0,0-3.9,1.23,5.55,5.55,0,0,0,2.56.18c.56,1.48-.89,2.94-2.28,3.71s-3.07,1.55-3.38,3.11l5.67-2.6c.4-.18.91-.35,1.24-.07a1.24,1.24,0,0,1,.25,1A27.63,27.63,0,0,0,675,180c2.32-2.48-1.08-6.91.68-9.82a1.14,1.14,0,0,0,1.31-.91l5.2,1.56c.48.15,1.14.24,1.39-.21s-.46-1.15-1.1-1.36l-5.46-1.78a7.57,7.57,0,0,1,4.9.35c-.69-1.71-3.66-1.09-4.68-2.64a3.43,3.43,0,0,1-.42-1.49l-1.17-9.16a13,13,0,0,0,5.16,5.74l-2.18-3.32a9,9,0,0,1,3.57,1.12c.5-.35.32-1.19-.15-1.57a4.24,4.24,0,0,0-1.71-.62,6.81,6.81,0,0,1-4.54-8.56,13.87,13.87,0,0,0,4.53,2.18,6.25,6.25,0,0,0-2.27-2,12.46,12.46,0,0,0,4.57.66c-.95-1.75-3.54-1.45-5.33-2.32a4.2,4.2,0,0,1-2.25-4.37l.85-.06a41.17,41.17,0,0,1-1.25-6.44,9.6,9.6,0,0,0-3.2.8c-.15.61-.3,1.22-.44,1.84A3.75,3.75,0,0,1,670.42,139.1Z"/><path d="M678.72,128.73a8.73,8.73,0,0,0-1.43-1,11.37,11.37,0,0,0-.68,1.29C677.51,128.89,678.43,128.75,678.72,128.73Z"/><path d="M676.61,131.82a9.19,9.19,0,0,0-.59-1.12,8.87,8.87,0,0,0-.18,1Z"/></g></g></g></svg>